<svg width="272" height="64" viewBox="0 0 272 64" fill="none" xmlns="http://www.w3.org/2000/svg">
<g clip-path="url(#clip0)">
<path d="M45.5092 13.7661V21.8696L59.546 29.9732V21.8696L45.5092 13.7661ZM17.4376 21.8696V29.9732L24.456 34.0249V25.9214L17.4376 21.8696ZM38.4908 25.9214L31.4723 29.9732V54.2837L38.4908 58.3376V42.1305L45.5092 46.1823V38.0788L38.4908 34.027V25.9214Z" fill="#E55B2D"/>
<path d="M45.5093 13.7661L24.4561 25.9214V34.0249L38.4929 25.9214V34.0249L45.5114 29.9732V13.7661H45.5093ZM66.5624 17.8179L59.544 21.8696V29.9732L66.5624 25.9214V17.8179ZM52.5277 34.027L45.5093 38.0788V46.1823L52.5277 42.1305V34.027ZM45.5093 46.1823L38.4908 42.1305V58.3376L45.5093 54.2858V46.1823Z" fill="#ED8E24"/>
<path d="M45.5092 5.6626L17.4376 21.8696L24.456 25.9214L45.5092 13.7661L59.546 21.8696L66.5644 17.8179L45.5092 5.6626ZM45.5092 29.9732L38.4908 34.0249L45.5092 38.0767L52.5276 34.0249L45.5092 29.9732Z" fill="#F8BF3C"/>
</g>
<g clip-path="url(#clip1)">
<path d="M88.2001 39.8716V28.9651H101.818V28.3271H88.2001V18.3773H102.678V17.7395H87.5624V40.5094H102.806V39.8716H88.2003H88.2001ZM115.084 24.1175L109.44 31.5481L103.922 24.1177H103.093L109.057 32.0266L102.519 40.5092H103.284L109.439 32.5046L115.626 40.5092H116.423L109.854 32.0263L115.849 24.1173H115.084L115.084 24.1175ZM118.337 46.1222V35.9174H118.401C118.783 37.4055 119.538 38.6014 120.665 39.5051C121.792 40.4085 123.227 40.8604 124.97 40.8604C126.097 40.8604 127.096 40.6319 127.968 40.1748C128.84 39.7177 129.568 39.0958 130.152 38.3092C130.737 37.5225 131.183 36.6083 131.492 35.5665C131.8 34.5249 131.954 33.4298 131.954 32.282C131.954 31.0487 131.795 29.9112 131.476 28.8696C131.157 27.8278 130.694 26.9241 130.089 26.1589C129.483 25.3935 128.749 24.798 127.888 24.3731C127.027 23.9478 126.054 23.7351 124.97 23.7351C124.141 23.7351 123.37 23.8574 122.658 24.1018C121.946 24.3465 121.313 24.6918 120.761 25.1383C120.205 25.5883 119.721 26.1206 119.325 26.7168C118.922 27.3228 118.613 27.9872 118.401 28.7101H118.337V24.1175H117.699V46.1222H118.337ZM124.97 40.2542C122.972 40.2542 121.366 39.5686 120.155 38.1974C118.943 36.8261 118.337 34.8541 118.337 32.2816C118.337 31.2185 118.486 30.2087 118.783 29.252C119.081 28.2954 119.512 27.4555 120.075 26.7327C120.638 26.0098 121.335 25.4358 122.164 25.0106C122.993 24.5853 123.928 24.3727 124.97 24.3727C126.033 24.3727 126.963 24.5853 127.761 25.0106C128.558 25.4358 129.217 26.0151 129.738 26.7486C130.259 27.4821 130.652 28.322 130.918 29.2679C131.183 30.214 131.316 31.2185 131.316 32.2816C131.316 33.2384 131.194 34.1899 130.95 35.1358C130.705 36.082 130.328 36.9324 129.817 37.6873C129.307 38.4418 128.654 39.0583 127.856 39.5368C127.059 40.0152 126.097 40.2542 124.97 40.2542ZM135.462 40.5094V31.2292C135.462 30.3363 135.59 29.4645 135.845 28.6142C136.1 27.7638 136.493 27.0143 137.025 26.366C137.556 25.7175 138.231 25.2072 139.05 24.8351C139.868 24.463 140.841 24.3089 141.968 24.3727V23.7349C140.99 23.7139 140.134 23.8199 139.401 24.0538C138.667 24.2877 138.035 24.6066 137.503 25.0106C136.972 25.4145 136.546 25.8875 136.228 26.4297C135.909 26.9711 135.672 27.5568 135.526 28.1677H135.462V24.1175H134.824V40.5096H135.462V40.5094ZM142.765 32.441H156.478C156.521 31.3142 156.409 30.2301 156.143 29.1883C155.878 28.1465 155.452 27.2216 154.868 26.4138C154.283 25.6059 153.528 24.9574 152.603 24.4684C151.678 23.9793 150.578 23.7349 149.303 23.7349C148.388 23.7349 147.496 23.9263 146.624 24.3091C145.752 24.6918 144.987 25.2497 144.328 25.9832C143.669 26.7166 143.137 27.6149 142.733 28.6782C142.329 29.7411 142.127 30.9528 142.127 32.3136C142.127 33.5253 142.266 34.6575 142.542 35.7099C142.818 36.7622 143.243 37.6766 143.817 38.4525C144.392 39.2285 145.13 39.8291 146.034 40.2542C146.937 40.6795 148.027 40.8815 149.303 40.8602C151.174 40.8602 152.747 40.3339 154.022 39.2817C155.298 38.2292 156.053 36.7463 156.287 34.8328H155.649C155.373 36.6401 154.666 37.9954 153.528 38.8989C152.391 39.8025 150.961 40.2542 149.239 40.2542C148.07 40.2542 147.081 40.0523 146.273 39.6484C145.465 39.2446 144.806 38.6916 144.296 37.9901C143.786 37.2884 143.408 36.4646 143.164 35.5185C142.919 34.5725 142.786 33.5466 142.765 32.441ZM155.84 31.8033H142.765C142.829 30.6552 143.041 29.6241 143.403 28.71C143.764 27.7956 144.237 27.0143 144.822 26.366C145.407 25.7175 146.087 25.2233 146.863 24.883C147.639 24.5428 148.474 24.3727 149.366 24.3727C150.43 24.3727 151.365 24.5695 152.173 24.9628C152.981 25.3561 153.656 25.893 154.198 26.5733C154.74 27.2535 155.149 28.0456 155.426 28.949C155.702 29.8526 155.84 30.8041 155.84 31.8033ZM169.713 28.9651H170.351C170.351 27.1366 169.819 25.8078 168.756 24.9787C167.693 24.1495 166.247 23.7349 164.419 23.7349C163.398 23.7349 162.537 23.8626 161.836 24.1177C161.134 24.3727 160.56 24.7023 160.114 25.1062C159.667 25.51 159.348 25.9566 159.157 26.4456C158.966 26.9347 158.87 27.4025 158.87 27.8488C158.87 28.7417 159.029 29.4539 159.348 29.9855C159.667 30.517 160.167 30.9316 160.847 31.2292C161.315 31.4417 161.846 31.6331 162.442 31.8035C163.037 31.9734 163.728 32.1541 164.515 32.3453C165.216 32.5157 165.907 32.6856 166.588 32.8556C167.268 33.0258 167.868 33.2543 168.389 33.5412C168.91 33.8283 169.335 34.1951 169.665 34.6416C169.994 35.088 170.159 35.6727 170.159 36.3955C170.159 37.0972 169.995 37.6925 169.665 38.1813C169.338 38.6678 168.908 39.0762 168.405 39.3774C167.895 39.6856 167.326 39.9087 166.699 40.0469C166.072 40.1851 165.461 40.2542 164.865 40.2542C162.931 40.2542 161.448 39.8238 160.417 38.9628C159.385 38.1017 158.87 36.7463 158.87 34.8966H158.232C158.232 36.959 158.79 38.4684 159.906 39.4253C161.023 40.3819 162.676 40.8602 164.865 40.8602C165.567 40.8602 166.274 40.7804 166.986 40.621C167.698 40.4615 168.336 40.2012 168.9 39.8396C169.458 39.4832 169.927 39.0032 170.271 38.4366C170.622 37.8624 170.797 37.1609 170.797 36.3317C170.797 35.5451 170.643 34.9073 170.335 34.4183C170.026 33.9294 169.622 33.5253 169.123 33.2065C168.623 32.8876 168.06 32.6378 167.433 32.4571C166.802 32.2754 166.169 32.0999 165.535 31.9307C164.754 31.7259 163.973 31.524 163.191 31.3249C162.521 31.1548 161.9 30.9528 161.326 30.7189C160.773 30.4851 160.332 30.1503 160.002 29.7144C159.672 29.2786 159.508 28.6567 159.508 27.8488C159.508 27.7001 159.55 27.4342 159.635 27.0516C159.72 26.6688 159.922 26.2808 160.241 25.8875C160.56 25.4943 161.049 25.1435 161.708 24.8351C162.367 24.527 163.271 24.3727 164.419 24.3727C165.206 24.3727 165.923 24.4579 166.571 24.6278C167.22 24.798 167.778 25.069 168.246 25.4411C168.713 25.8132 169.075 26.2862 169.33 26.8602C169.585 27.4344 169.713 28.1359 169.713 28.9651ZM184.478 28.9651H185.116C185.116 27.1366 184.584 25.8078 183.521 24.9787C182.458 24.1495 181.013 23.7349 179.184 23.7349C178.164 23.7349 177.303 23.8626 176.601 24.1177C175.899 24.3727 175.325 24.7023 174.879 25.1062C174.432 25.51 174.114 25.9566 173.922 26.4456C173.731 26.9347 173.635 27.4025 173.635 27.8488C173.635 28.7417 173.795 29.4539 174.114 29.9855C174.432 30.517 174.932 30.9316 175.613 31.2292C176.08 31.4417 176.612 31.6331 177.207 31.8035C177.802 31.9734 178.493 32.1541 179.28 32.3453C179.982 32.5157 180.673 32.6856 181.353 32.8556C182.033 33.0258 182.634 33.2543 183.155 33.5412C183.675 33.8283 184.101 34.1951 184.43 34.6416C184.76 35.088 184.925 35.6727 184.925 36.3955C184.925 37.0972 184.76 37.6925 184.43 38.1813C184.103 38.6678 183.673 39.0762 183.171 39.3774C182.66 39.6856 182.092 39.9087 181.464 40.0469C180.837 40.1851 180.226 40.2542 179.631 40.2542C177.696 40.2542 176.213 39.8238 175.182 38.9628C174.151 38.1017 173.635 36.7463 173.635 34.8966H172.998C172.998 36.959 173.555 38.4684 174.672 39.4253C175.788 40.3819 177.441 40.8602 179.631 40.8602C180.332 40.8602 181.039 40.7804 181.751 40.621C182.464 40.4615 183.101 40.2012 183.665 39.8396C184.223 39.4832 184.693 39.0032 185.036 38.4366C185.387 37.8624 185.562 37.1609 185.562 36.3317C185.562 35.5451 185.408 34.9073 185.1 34.4183C184.792 33.9294 184.388 33.5253 183.888 33.2065C183.389 32.8876 182.825 32.6378 182.198 32.4571C181.567 32.2754 180.935 32.0999 180.3 31.9307C179.52 31.7259 178.739 31.524 177.956 31.3249C177.287 31.1548 176.665 30.9528 176.091 30.7189C175.538 30.4851 175.097 30.1503 174.767 29.7144C174.438 29.2786 174.273 28.6567 174.273 27.8488C174.273 27.7001 174.316 27.4342 174.401 27.0516C174.486 26.6688 174.688 26.2808 175.007 25.8875C175.325 25.4943 175.814 25.1435 176.473 24.8351C177.133 24.527 178.036 24.3727 179.184 24.3727C179.971 24.3727 180.688 24.4579 181.337 24.6278C181.985 24.798 182.543 25.069 183.011 25.4411C183.479 25.8132 183.84 26.2862 184.095 26.8602C184.351 27.4344 184.478 28.1359 184.478 28.9651H184.478Z" fill="#222222"/>
</g>
<g clip-path="url(#clip2)">
<path d="M230.562 36.2746C232.923 36.2746 234.837 34.3606 234.837 31.9996C234.837 29.6386 232.923 27.7246 230.562 27.7246C228.201 27.7246 226.287 29.6386 226.287 31.9996C226.287 34.3606 228.201 36.2746 230.562 36.2746Z" fill="#61DAFB"/>
<path d="M246.8 24.9496C245.975 24.6496 245.112 24.3496 244.212 24.0871C244.437 23.1871 244.625 22.2871 244.775 21.4246C245.562 16.4746 244.7 12.9871 242.3 11.6371C241.587 11.2246 240.8 11.0371 239.9 11.0371C237.275 11.0371 233.937 12.9871 230.562 16.2496C227.187 12.9871 223.85 11.0371 221.225 11.0371C220.325 11.0371 219.537 11.2246 218.825 11.6371C216.425 13.0246 215.562 16.5121 216.35 21.4246C216.5 22.2871 216.687 23.1871 216.912 24.0871C216.012 24.3496 215.15 24.6121 214.325 24.9496C209.637 26.7496 207.087 29.2246 207.087 31.9996C207.087 34.7746 209.675 37.2496 214.325 39.0496C215.15 39.3496 216.012 39.6496 216.912 39.9121C216.687 40.8121 216.5 41.7121 216.35 42.5746C215.562 47.5246 216.425 51.0121 218.825 52.3621C219.537 52.7746 220.325 52.9621 221.225 52.9621C223.887 52.9621 227.225 51.0121 230.562 47.7496C233.937 51.0121 237.275 52.9621 239.9 52.9621C240.8 52.9621 241.587 52.7746 242.3 52.3621C244.7 50.9746 245.562 47.4871 244.775 42.5746C244.625 41.7121 244.437 40.8121 244.212 39.9121C245.112 39.6496 245.975 39.3871 246.8 39.0496C251.487 37.2496 254.037 34.7746 254.037 31.9996C254.037 29.2246 251.487 26.7496 246.8 24.9496ZM241.25 13.5121C242.787 14.4121 243.312 17.1871 242.675 21.1246C242.562 21.9121 242.375 22.7371 242.15 23.5996C240.2 23.1496 238.137 22.8496 235.962 22.6621C234.687 20.8621 233.375 19.2496 232.062 17.7871C234.837 15.0496 237.65 13.1746 239.937 13.1746C240.425 13.1746 240.875 13.2871 241.25 13.5121ZM237.05 35.7496C236.375 36.9496 235.587 38.1496 234.762 39.3496C233.375 39.4621 231.987 39.4996 230.562 39.4996C229.1 39.4996 227.712 39.4621 226.362 39.3496C225.537 38.1496 224.787 36.9496 224.112 35.7496C223.4 34.5121 222.725 33.2371 222.125 31.9996C222.725 30.7621 223.4 29.4871 224.112 28.2496C224.787 27.0496 225.575 25.8496 226.4 24.6496C227.787 24.5371 229.175 24.4996 230.6 24.4996C232.062 24.4996 233.45 24.5371 234.8 24.6496C235.625 25.8496 236.375 27.0496 237.05 28.2496C237.762 29.4871 238.437 30.7621 239.037 31.9996C238.4 33.2371 237.762 34.4746 237.05 35.7496ZM240.162 34.5121C240.725 35.8246 241.175 37.0996 241.587 38.3746C240.312 38.6746 238.962 38.8996 237.537 39.0871C237.987 38.3746 238.475 37.6246 238.887 36.8371C239.337 36.0496 239.75 35.2621 240.162 34.5121ZM230.562 44.6746C229.662 43.6996 228.8 42.6496 227.975 41.5621C228.837 41.5996 229.7 41.6371 230.562 41.6371C231.425 41.6371 232.287 41.5996 233.15 41.5621C232.325 42.6496 231.462 43.6996 230.562 44.6746ZM223.587 39.0496C222.162 38.8621 220.812 38.6371 219.537 38.3371C219.95 37.0996 220.4 35.7871 220.962 34.4746C221.375 35.2246 221.787 36.0121 222.237 36.7621C222.687 37.5871 223.137 38.2996 223.587 39.0496ZM220.962 29.4871C220.4 28.1746 219.95 26.8996 219.537 25.6246C220.812 25.3246 222.162 25.0996 223.587 24.9121C223.137 25.6246 222.65 26.3746 222.237 27.1621C221.787 27.9496 221.375 28.7371 220.962 29.4871ZM230.562 19.3246C231.462 20.2996 232.325 21.3496 233.15 22.4371C232.287 22.3996 231.425 22.3621 230.562 22.3621C229.7 22.3621 228.837 22.3996 227.975 22.4371C228.8 21.3496 229.662 20.2996 230.562 19.3246ZM238.887 27.1996L237.537 24.9496C238.962 25.1371 240.312 25.3621 241.587 25.6621C241.175 26.8996 240.725 28.2121 240.162 29.5246C239.75 28.7371 239.337 27.9496 238.887 27.1996ZM218.45 21.1246C217.812 17.1871 218.337 14.4121 219.875 13.5121C220.25 13.2871 220.7 13.1746 221.187 13.1746C223.437 13.1746 226.25 15.0121 229.062 17.7871C227.75 19.2121 226.437 20.8621 225.162 22.6621C222.987 22.8496 220.925 23.1871 218.975 23.5996C218.75 22.7371 218.6 21.9121 218.45 21.1246ZM209.187 31.9996C209.187 30.2371 211.325 28.3621 215.075 26.9746C215.825 26.6746 216.65 26.4121 217.475 26.1871C218.075 28.0621 218.825 30.0496 219.725 32.0371C218.825 34.0246 218.037 35.9746 217.475 37.8496C212.3 36.3496 209.187 34.0996 209.187 31.9996ZM219.875 50.4871C218.337 49.5871 217.812 46.8121 218.45 42.8746C218.562 42.0871 218.75 41.2621 218.975 40.3996C220.925 40.8496 222.987 41.1496 225.162 41.3371C226.437 43.1371 227.75 44.7496 229.062 46.2121C226.287 48.9496 223.475 50.8246 221.187 50.8246C220.7 50.8246 220.25 50.7121 219.875 50.4871ZM242.675 42.8746C243.312 46.8121 242.787 49.5871 241.25 50.4871C240.875 50.7121 240.425 50.8246 239.937 50.8246C237.687 50.8246 234.875 48.9871 232.062 46.2121C233.375 44.7871 234.687 43.1371 235.962 41.3371C238.137 41.1496 240.2 40.8121 242.15 40.3996C242.375 41.2621 242.525 42.0871 242.675 42.8746ZM246.05 37.0246C245.3 37.3246 244.475 37.5871 243.65 37.8121C243.05 35.9371 242.3 33.9496 241.4 31.9621C242.3 29.9746 243.087 28.0246 243.65 26.1496C248.825 27.6496 251.937 29.8996 251.937 31.9996C251.937 33.7621 249.762 35.6371 246.05 37.0246Z" fill="#61DAFB"/>
</g>
<defs>
<clipPath id="clip0">
<rect width="49.1247" height="52.675" fill="white" transform="translate(17.4376 5.6626)"/>
</clipPath>
<clipPath id="clip1">
<rect width="98" height="28.5376" fill="white" transform="translate(87.5624 17.7312)"/>
</clipPath>
<clipPath id="clip2">
<rect width="48" height="48" fill="white" transform="translate(206.562 8)"/>
</clipPath>
</defs>
</svg>
