<svg width="73" height="72" viewBox="0 0 73 72" fill="none" xmlns="http://www.w3.org/2000/svg">
<path fill-rule="evenodd" clip-rule="evenodd" d="M25.1752 14.2008L21.2382 9.33245C20.4245 8.40453 20.6555 7.66659 21.0689 6.96178C22.1101 5.03085 23.1127 3.0779 24.9212 1.58545L25.8949 4.71812C26.7086 6.5418 27.7937 7.64168 28.9429 8.57045L31.1019 8.95145C31.6476 9.06895 32.567 8.89805 33.0069 9.75578L32.1602 12.6345L28.0116 13.0578L25.1752 14.2008Z" fill="#5AA02C" stroke="#FFCC00" stroke-width="0.235067"/>
<path fill-rule="evenodd" clip-rule="evenodd" d="M24.9598 1.10751C24.6329 1.10236 24.4932 1.33601 24.3288 1.50041C24.3288 1.50041 24.3252 1.50394 24.3235 1.5057C24.3217 1.50746 24.3198 1.50911 24.3182 1.51099C23.2685 2.72113 22.2762 3.85355 21.4342 5.35539C21.028 6.07993 20.3387 6.97139 20.3852 8.12822C20.4395 9.48031 21.3202 10.5119 21.9356 11.3747C22.7675 12.5407 24.7177 14.3803 24.7177 14.3803L25.5485 13.5125C25.5485 13.5125 23.5578 11.5828 22.9119 10.6775C22.2666 9.77291 21.6166 8.89766 21.5837 8.0806C21.5595 7.47795 22.0271 6.7542 22.482 5.94276C22.8607 5.26717 23.708 3.74158 24.2613 3.06277C24.2212 3.34642 23.9487 4.34407 23.9094 4.68731C23.7841 5.78388 23.6786 7.0489 23.8353 7.93375C24.0476 9.13181 24.9167 10.4452 25.7192 11.5255C26.5216 12.6057 27.2776 13.4252 27.2776 13.4252L27.984 12.7743C27.984 12.7743 27.2594 11.9878 26.4904 10.9526C25.7215 9.91751 24.9285 8.60621 24.7799 7.76706C24.6681 7.1361 24.7416 5.8616 24.8632 4.79712C24.8854 4.6029 24.9498 3.31054 24.973 3.13289C25.0144 3.41999 25.5254 4.95778 25.6874 5.21913C27.239 7.72202 27.7246 8.83362 30.3785 9.44981C30.8835 9.56707 31.6555 9.28278 32.1022 9.57152C32.5262 9.84559 32.2825 10.3871 32.2398 10.8667C32.2293 10.9851 32.0934 11.3876 31.9475 11.6974C31.8015 12.0073 31.6617 12.2491 31.6617 12.2491L32.7015 12.8497C32.7015 12.8497 32.8644 12.5686 33.0336 12.2094C33.2027 11.8502 33.3944 11.4374 33.4357 10.9725C33.485 10.4183 33.5696 9.57921 32.9383 8.96563C32.4234 8.46515 31.758 8.47294 31.2622 8.48409C30.7664 8.49523 30.3747 8.49109 30.1906 8.39677C28.5629 7.56272 27.0266 6.20092 26.2298 4.55503C25.94 3.95634 26.034 3.24459 25.993 2.60637C25.9678 2.21357 25.9829 1.89331 25.7549 1.50306C25.5573 1.16481 25.2916 1.11272 24.9598 1.10751Z" fill="#447821"/>
<path fill-rule="evenodd" clip-rule="evenodd" d="M30.1828 52.3761C29.1597 52.706 27.4451 53.7581 27.5785 54.2919L27.818 57.5846L28.716 58.1234C28.96 62.2481 29.3402 65.7824 29.8236 68.8698C32.2365 69.8487 34.6654 70.6367 37.1575 70.6659C39.642 70.7374 42.1265 70.1499 44.6111 69.3488C45.007 69.0529 45.2823 68.6063 45.3594 67.9119L46.4071 58.333C46.8538 58.1411 47.4136 58.0623 47.4848 57.4948L47.7242 53.9626C47.4359 53.3139 44.287 52.0657 42.3959 51.7475C38.376 51.0709 34.0625 51.125 30.1828 52.3761Z" fill="#C83737" stroke="#FFCC00" stroke-width="0.235067"/>
<path fill-rule="evenodd" clip-rule="evenodd" d="M28.1626 55.3876C28.1626 55.3876 29.6584 54.029 32.0241 53.4718C33.8914 53.0319 35.8232 52.8045 37.7415 52.8132C39.843 52.8228 41.9766 53.0161 43.9978 53.5915C46.0996 54.1899 46.8116 55.4474 46.8116 55.4474C46.8116 55.4474 43.8117 56.8491 42.2017 57.1537C39.6816 57.6305 37.0495 57.6533 34.5086 57.3034C32.3197 57.0019 28.1626 55.3876 28.1626 55.3876Z" fill="#2B0000" stroke="#AAD400" stroke-width="0.235067"/>
<path opacity="0.31" fill-rule="evenodd" clip-rule="evenodd" d="M28.2971 55.2797C28.2971 55.2797 29.7929 53.9211 32.1586 53.3639C34.0259 52.924 35.9577 52.6966 37.8761 52.7053C39.9775 52.7149 42.1111 52.9082 44.1323 53.4836C46.2341 54.082 46.9461 55.3395 46.9461 55.3395C46.9461 55.3395 43.9462 56.7412 42.3363 57.0458C39.8161 57.5225 37.184 57.5454 34.6432 57.1954C32.4542 56.894 28.2971 55.2797 28.2971 55.2797V55.2797Z" stroke="#AAD400" stroke-width="0.235067"/>
<path fill-rule="evenodd" clip-rule="evenodd" d="M37.6915 50.897C34.8999 50.897 32.3739 51.214 30.4988 51.7463C29.5613 52.0124 28.7859 52.3274 28.2009 52.72C27.616 53.1125 27.1611 53.6364 27.1611 54.3035C27.1611 54.5758 27.1525 54.7971 27.282 55.0222L27.353 56.7443C27.357 56.9167 27.5471 57.8448 27.8464 57.9867C28.1457 58.1286 28.2719 58.1887 28.3213 58.2129L29.1349 67.6124C29.1969 68.3288 29.4331 69.182 30.0107 69.4562C32.506 70.6403 35.3357 71.192 37.7696 71.1429C40.199 71.0939 42.4677 70.874 44.5429 69.8755C45.0818 69.6163 45.4741 69.236 45.6066 68.7444C45.7496 68.2134 45.7692 68.0642 45.9862 66.3261C46.2032 64.5881 46.9683 58.5067 46.9683 58.5067C47.1554 58.464 47.152 58.4247 47.2541 58.3837C47.5753 58.2548 47.8207 57.6538 47.8979 57.3819C47.9726 57.1185 47.9747 56.865 47.9719 56.612L48.1944 54.9069C48.3062 54.6958 48.222 54.5549 48.222 54.3035C48.222 53.6364 47.7671 53.1125 47.1822 52.72C46.5972 52.3274 45.8231 52.0124 44.8856 51.7463C43.0105 51.214 40.4832 50.897 37.6915 50.897H37.6915ZM37.6823 51.8799C40.3846 51.8799 42.8705 52.2249 44.5959 52.7147C45.4585 52.9596 46.169 53.2901 46.5908 53.5732C47.0127 53.8564 47.0578 54.1907 47.0578 54.3035C47.0578 54.366 47.0188 54.4632 46.9189 54.5839C46.7601 54.3892 46.5421 54.2165 46.2918 54.0548C45.7965 53.7348 45.1287 53.4486 44.3299 53.1975C42.7324 52.6953 40.6117 52.3446 38.39 52.3218C36.6669 52.304 34.1843 52.5634 32.0996 53.052C31.0572 53.2963 30.1165 53.5958 29.4074 53.9648C29.0529 54.1493 28.755 54.3499 28.529 54.5906C28.5193 54.6009 28.5121 54.613 28.5026 54.6236C28.3762 54.4846 28.3266 54.3725 28.3266 54.3035C28.3266 54.1907 28.3718 53.904 28.7936 53.6209C29.2155 53.3377 29.9352 53.0257 30.7978 52.7808C32.5231 52.291 34.98 51.8799 37.6823 51.8799ZM38.3821 53.0414C40.5322 53.0636 42.6 53.4081 44.1143 53.8841C44.8715 54.1221 45.4902 54.3957 45.9002 54.6607C46.1081 54.795 46.2486 54.9247 46.3381 55.0324C45.9135 55.279 45.3136 55.5282 44.5667 55.7402C42.8414 56.23 40.3939 56.5445 37.6915 56.5445C34.9892 56.5445 32.5417 56.23 30.8164 55.7402C30.0932 55.5349 29.5082 55.2951 29.086 55.0562C29.2303 54.9115 29.4492 54.7535 29.7395 54.6025C30.3562 54.2815 31.256 53.9893 32.2636 53.7531C34.2789 53.2808 36.7397 53.0245 38.3821 53.0414ZM28.1057 55.8143C28.6778 56.1766 29.6144 56.6096 30.4989 56.8607C32.3739 57.393 34.8999 57.71 37.6915 57.71C40.4832 57.71 43.0105 57.393 44.8856 56.8607C45.7524 56.6146 46.6614 56.2143 47.2285 55.8619C47.2378 56.2744 47.154 57.2781 47.0993 57.6452C46.0985 58.0885 45.5196 58.4543 44.517 58.6881C42.3017 59.2048 39.6974 59.2496 37.824 59.2959C35.1956 59.3608 33.0354 59.0577 31.539 58.5998C30.0432 58.1421 29.0767 57.7319 28.5393 57.4787C28.2865 57.3596 28.3027 57.3143 28.2999 57.1215L28.1057 55.8143ZM29.2686 58.5503C29.8236 58.809 30.5735 59.0152 31.5231 59.3058C33.1072 59.7905 34.9789 60.1966 37.7135 60.1339C42.288 60.0291 43.6424 59.8771 45.948 58.9361C45.9849 62.3251 45.1992 64.6174 44.8063 67.4334C44.7616 67.7538 44.7498 67.8275 44.6658 68.1845C44.5818 68.5414 44.3362 68.8002 43.8909 69.0421C43.4455 69.284 42.8209 69.4702 42.1089 69.6445C40.6848 69.993 39.1491 69.9981 37.6758 70.0073C36.2861 70.0159 35.1673 69.8951 33.8328 69.5945C32.7154 69.3429 31.8036 69.2149 30.735 68.6412C30.3557 68.4376 30.1586 67.5506 30.1195 67.1955C29.8027 64.3174 28.948 61.4991 29.2686 58.5503Z" fill="#501616"/>
<path fill-rule="evenodd" clip-rule="evenodd" d="M20.8862 33.1595C20.4044 33.1909 20.1551 33.7496 20.4536 34.1292C20.4536 34.1292 23.8278 38.4648 24.4268 39.4223C27.3954 44.1679 33.0175 54.9338 33.0175 54.9338C33.3692 55.6724 34.4732 55.1163 34.089 54.394C34.089 54.394 28.4907 43.6562 25.4441 38.7859C24.7672 37.7039 21.4074 33.4015 21.4074 33.4015C21.2861 33.2375 21.0898 33.1463 20.8862 33.1595Z" fill="#2D5016" stroke="#17280B" stroke-width="0.86" stroke-linecap="round"/>
<path fill-rule="evenodd" clip-rule="evenodd" d="M50.237 22.3285L53.158 22.2861L56.1637 23.5985L59.0847 23.5561C59.4234 23.8805 59.8216 24.0264 60.0584 24.6568L60.143 25.4611L59.8044 26.3078L58.619 25.1648C57.862 24.7233 57.5363 25.1443 57.095 25.3341L55.444 28.0435L51.8457 30.1178L48.078 28.1281L46.2577 27.2391L48.5014 24.3605L49.4327 22.4978L50.237 22.3285Z" fill="#5AA02C" stroke="#CCFF00" stroke-width="0.235067"/>
<path fill-rule="evenodd" clip-rule="evenodd" d="M50.7899 22.0808L50.9963 22.6616C51.6334 22.526 52.3448 22.5871 52.9466 22.7078C53.9918 22.9174 54.8983 23.6671 55.7175 23.8683C57.0084 24.1853 58.1589 24.1228 58.7763 23.9316C59.4324 23.7284 60.1837 25.7398 59.6401 25.8164C59.6208 25.1188 58.4549 23.9462 57.2801 24.8444L56.538 25.0204L56.3131 25.5919C55.7306 27.072 55.5312 27.3115 54.9729 27.7614C54.4147 28.2114 53.6072 28.2508 52.8973 28.9799L53.4185 29.4998C53.9519 28.9519 54.9082 29.0151 55.6199 28.4414C56.2601 27.9253 56.5301 26.8819 57.3965 25.707C57.7169 25.2725 58.3132 25.2194 58.8914 25.7361C58.8914 25.7361 59.4502 26.7126 59.8863 26.6251C60.1071 26.5807 60.1773 26.0152 60.1773 26.0152C60.4674 25.4074 60.5058 24.7855 60.2527 24.302C59.9996 23.8186 59.5492 23.553 59.0978 23.3813C58.2334 23.0525 57.0394 23.2869 56.4268 23.1458C55.2117 22.8659 54.3425 22.0547 52.7716 21.9022C52.2009 21.8469 51.3076 22.0033 50.7899 22.0808ZM54.3493 24.3065C51.8177 24.803 49.6519 26.0643 47.8358 27.7562L48.447 28.2681C49.3104 27.4637 50.1417 26.6668 51.199 26.197C52.1517 25.7736 53.1887 25.3843 54.2398 25.007C55.1612 24.6762 56.5358 25.0145 56.6411 24.5992C56.6617 24.3321 54.6877 24.2401 54.3493 24.3065Z" fill="#17280B"/>
<path fill-rule="evenodd" clip-rule="evenodd" d="M39.7804 26.9852L41.7701 25.3765L44.8181 24.0219L47.0617 20.9315L49.5171 19.6615C50.2791 19.3814 51.0411 19.6438 51.8031 19.9155C52.8559 20.1255 53.8069 20.3558 54.3007 20.6775L54.2584 20.9315L52.4381 21.2279L51.1681 22.2015L49.6017 22.4132L47.7391 25.7575C47.1224 26.3859 46.7696 26.9504 45.8341 27.3662L42.4897 26.9429L39.7804 26.9852Z" fill="#447821" stroke="#CCFF00" stroke-width="0.235067"/>
<path fill-rule="evenodd" clip-rule="evenodd" d="M50.1851 19.1663C49.715 19.1599 49.2293 19.2489 48.7603 19.5328C48.2386 19.8486 47.8903 20.0839 47.62 20.2339C47.3497 20.384 47.2608 20.6049 46.9704 20.652L47.0273 21.283C47.455 21.2137 47.8286 21.0845 48.1716 20.8941C48.5146 20.7036 48.7798 20.5313 49.2776 20.23C49.7751 19.9288 50.7114 19.9916 51.4895 20.1797C51.6329 20.2144 52.0506 20.385 52.6352 20.4244C53.0903 20.4551 53.8963 20.6201 53.8893 20.7485C53.8819 20.8827 52.6324 20.9467 52.1814 21.0105C51.5722 21.0966 51.4007 21.5826 51.2382 21.7182C50.8551 22.038 50.4776 21.8362 50.0753 21.8571C49.3212 21.8964 49.0858 22.5192 48.8013 23.024C48.5168 23.5287 48.082 24.0094 47.9692 24.2622C47.7622 24.7265 47.3335 25.16 46.858 25.8233C46.5553 26.2454 45.971 26.7068 45.6621 27.0761L46.2693 27.7587C46.7387 27.3227 47.2358 27.0487 47.575 26.5879C48.0831 25.8976 48.6107 25.1013 48.9006 24.4514C49.0633 24.0865 49.2225 23.6158 49.4271 23.2528C49.6317 22.8898 49.8107 22.7469 49.9377 22.7409C50.3238 22.7224 50.6395 22.719 50.9749 22.6456C51.3103 22.5722 51.6479 22.4075 51.9486 22.1469C52.257 21.8795 52.9139 21.2439 53.3985 21.2393C54.2046 21.2317 54.6208 21.1838 54.7082 20.9681C54.562 20.248 53.9567 20.297 53.372 20.0844C52.811 19.8805 52.1127 19.518 51.5173 19.374C51.1102 19.2756 50.6553 19.1728 50.1851 19.1663ZM51.1469 20.5184C50.9644 20.5267 50.7859 20.5469 50.6349 20.5819C50.031 20.7216 49.3179 20.9181 48.808 21.2221C47.869 21.7819 46.8951 23.0311 46.0365 23.9857C45.1778 24.9403 42.9673 26.5284 42.9673 26.5284L43.5017 26.9438C43.5017 26.9438 45.6097 25.3307 46.4505 24.3958C47.2914 23.461 48.0613 22.2778 48.8556 21.8042C49.2257 21.5836 50.197 21.2402 50.7725 21.1071C51.348 20.9739 52.2643 20.9003 52.274 20.6903C52.2793 20.5759 51.6944 20.4933 51.1469 20.5184Z" fill="#2D5016"/>
<path fill-rule="evenodd" clip-rule="evenodd" d="M15.9895 28.2974C15.0539 28.4372 14.0746 28.7082 13.0262 29.1864C11.561 30.1194 10.8384 30.9463 10.1475 31.7687L9.7242 33.335L8.79287 34.224L8.62354 36.4254C9.08407 35.7621 9.21385 35.0989 10.4015 34.4357C11.2335 34.4513 12.0213 34.5772 13.0685 34.0547L14.8889 33.5044C15.324 32.2735 15.5082 31.0739 16.7939 29.7367C15.9491 28.8965 15.9491 28.5843 15.9895 28.2974Z" fill="#5AA02C" stroke="#AAD400" stroke-width="0.235067"/>
<path fill-rule="evenodd" clip-rule="evenodd" d="M16.1482 27.8303C16.1482 27.8303 15.6463 27.939 15.0396 28.0976C14.4328 28.2561 13.7356 28.4517 13.2364 28.6862C12.5028 29.031 11.7597 29.6946 11.1396 30.2843C10.5195 30.874 10.3593 30.906 10.0508 31.3929C9.74556 31.8749 9.39899 32.4403 9.48066 33.1299C8.80076 33.7838 8.58118 33.9654 8.47392 34.6672C8.357 35.4321 8.47317 35.3913 8.34956 35.9649C8.26191 36.3717 8.41078 36.993 8.5652 37.0418C8.78567 37.1114 8.8237 36.6877 9.16977 36.1263C10.0532 34.6935 10.2943 35.2517 11.2322 34.6936C12.6201 34.9666 14.0527 34.277 14.7459 34.0414L14.554 33.0863C13.204 33.4389 11.6824 34.3812 10.5906 34.0666C9.79308 34.5241 9.35777 34.5837 8.92768 35.3577C8.72527 34.6962 9.2355 33.8313 10.072 33.4739C9.98488 32.8393 10.3685 32.3493 10.6263 31.9446C10.7928 31.6832 10.9589 31.3557 11.5179 30.8241C12.1023 30.2683 12.9026 29.6647 13.3436 29.4575C13.6634 29.3072 14.6124 29.1568 15.193 29.0051C15.7737 28.8534 16.344 28.718 16.344 28.718L16.1482 27.8303ZM15.8836 29.9906C14.1215 30.5045 11.9871 30.5541 11.1065 32.5677C10.7612 33.3574 10.2598 33.8433 10.3551 33.8721C10.4936 33.914 11.4044 33.1473 11.6423 32.7145C12.4955 31.1627 14.2372 31.0906 15.9947 30.578L15.8836 29.9906Z" fill="#2D5016"/>
<path fill-rule="evenodd" clip-rule="evenodd" d="M30.1709 37.0605L27.4616 35.2402L23.6092 34.6052L19.4182 31.8535L15.4389 28.2552L14.4652 27.0698H11.5866L9.38525 27.5778L8.96191 27.0698L10.4012 25.8845L14.6346 24.7838L17.4286 25.2072L20.6882 24.1912L22.6356 24.4875L26.4456 26.9428L30.3402 28.2128C31.2671 28.795 31.9522 29.8203 32.2029 31.6418V35.5365C31.6723 36.7047 30.922 36.8844 30.1709 37.0605Z" fill="#5AA02C" stroke="#FF00FF" stroke-width="0.235067"/>
<path fill-rule="evenodd" clip-rule="evenodd" d="M18.8045 24.1539C18.1275 24.3873 17.519 24.6293 16.967 24.6619C16.4193 24.6942 15.7313 24.4467 14.8781 24.4317C13.512 24.4077 12.3125 24.8492 11.1255 25.2819C10.1997 25.6194 9.61642 26.1173 8.9567 26.7375C8.33834 27.3189 8.50575 27.792 9.35035 27.84C10.0559 27.8801 11.1039 27.4759 11.7192 27.3832C12.7554 27.2272 14.0206 27.4383 14.3449 27.5683C15.1587 27.8946 15.3724 28.9632 15.992 29.4376C17.0602 30.2555 17.7856 31.0801 18.9725 31.9591C20.4602 33.0609 21.9002 34.6063 23.8977 35.2465C24.9587 35.5866 26.07 35.3578 27.0952 35.523C27.4724 35.5838 28.0293 36.0696 28.602 36.5165C29.1748 36.9635 29.7864 37.5057 30.6353 37.3698L30.5255 36.6819C31.0508 36.566 31.17 35.8708 30.7134 35.5865C29.2738 34.6567 27.6752 33.619 26.3755 32.5928C25.0764 31.5669 24.1042 30.5143 23.5538 29.6024C23.0034 28.6905 22.2351 28.3704 21.337 27.921C20.3351 27.4197 19.5279 27.1447 18.5866 26.8296C18.0493 26.6497 17.6344 27.0223 18.0809 27.3712C18.9473 28.0484 20.0815 28.1562 20.9897 28.5339C21.898 28.9115 22.4988 29.4946 22.8147 30.4419C23.1305 31.3893 24.3792 32.151 25.7452 33.2296C26.0431 33.4649 28.9885 35.3757 29.3065 35.6074C28.9897 35.5907 25.9392 34.2286 25.6559 34.2358C25.1219 34.2496 24.6627 34.2435 24.2946 34.1141C22.6613 33.5402 21.4655 32.8581 19.8762 31.6811C18.7976 30.8823 18.0445 29.9809 16.8695 29.0913C16.6151 28.8988 15.9114 28.1085 15.6342 27.6744C15.357 27.2402 15.1198 26.8538 14.3975 26.7289C13.5278 26.5785 12.5803 26.4978 11.5734 26.6542C11.0991 26.7279 9.87236 27.2571 9.6622 27.0534C9.32483 26.7265 10.8172 26.2538 11.2255 26.092C12.2352 25.692 13.7118 25.3445 14.8569 25.3646C15.4353 25.3748 16.271 25.6061 17.1528 25.554C17.9676 25.5059 18.6396 25.1721 19.2856 24.9404C19.9315 24.7088 20.8812 24.6206 21.4013 24.6754C23.0982 24.8542 24.3957 26.3578 26.2792 27.2515C27.2059 27.6913 28.0239 27.7287 28.8944 28.0332C29.7649 28.3377 30.4634 29.0058 30.8893 29.6109C31.3365 30.2461 31.5665 31.7813 31.5839 33.1114C31.6013 34.4414 31.4701 35.564 31.4701 35.564L32.6621 35.703C32.6621 35.703 32.8023 34.5133 32.7838 33.0955C32.7652 31.6777 32.6529 30.0298 31.8709 28.919C31.2235 27.9993 30.2469 27.5406 29.2899 27.2059C28.333 26.8711 27.3611 26.6422 26.6031 26.2825C24.9412 25.4938 23.2747 23.9848 21.0693 23.7491C20.2869 23.6654 19.4765 23.9222 18.8045 24.1539Z" fill="#447821"/>
<path fill-rule="evenodd" clip-rule="evenodd" d="M52.3112 29.8213L55.4015 29.1863L60.5238 30.4139L63.6565 30.6679C64.8351 31.4944 64.9922 32.1931 65.3075 32.9116L63.1062 32.7846L61.6245 32.8269L59.4232 34.3509L57.1795 37.4413C55.2569 38.4087 53.245 38.4822 51.2105 38.3303L46.1305 37.4413L49.5595 36.0866C51.2563 35.4992 52.7329 34.8751 55.0628 34.3933L56.4175 34.0546L53.2002 31.3029L52.3112 29.8213Z" fill="#71C837" stroke="#C83737" stroke-width="0.235067"/>
<path fill-rule="evenodd" clip-rule="evenodd" d="M53.0005 28.9586C52.2026 29.0989 51.5651 29.5969 51.5651 29.5969L51.8469 30.4205C51.8469 30.4205 52.4518 30.2736 53.2095 30.14C53.9673 30.0064 54.8945 29.8968 55.3923 29.9389C57.1694 30.0891 58.2983 30.3837 60.1785 30.857C60.5687 30.9552 61.2324 30.9675 61.7395 30.9872C62.2466 31.0069 62.9806 31.048 63.1579 31.0896C63.4652 31.1618 64.6087 31.8849 64.6542 32.4385C64.6805 32.5536 63.4172 31.8993 62.6349 31.7154C61.8526 31.5316 60.2492 31.2606 58.7314 31.2592C57.2135 31.2578 55.7561 31.5186 54.6555 32.377L55.0682 32.9416C55.8467 32.3343 57.3752 32.0195 58.7491 32.0205C59.3098 32.0209 62.2162 31.9054 62.7072 32.4473C61.6183 32.3487 59.5154 33.484 58.8816 34.2091C58.3559 34.8107 57.9237 35.4224 57.5952 35.9837C57.2666 36.5451 56.7702 36.83 56.37 37.0549C55.7578 37.3989 54.2841 37.5996 53.0296 37.6343C51.7751 37.6691 50.7211 37.7241 50.7211 37.7241L50.593 38.5006C50.593 38.5006 51.7393 38.8709 53.0627 38.8342C54.386 38.7975 55.9063 38.692 56.9573 38.1013C57.6856 37.6921 58.0934 37.0297 58.4403 36.4371C58.7872 35.8444 59.0884 35.3052 59.4616 34.9792C60.3494 34.2036 60.7501 33.6281 61.8601 33.1523C62.3815 32.9288 63.0043 33.0693 63.5468 33.1099C64.2924 33.1658 64.6015 33.2012 64.9517 33.2885C66.2115 33.6028 65.8232 32.8453 65.5775 32.4048C65.4016 32.0896 65.3158 31.9334 64.9411 31.4365C64.5665 30.9395 64.1534 30.343 63.3801 30.1969C62.9895 30.1231 62.4825 30.1133 61.9765 30.0937C61.4705 30.074 60.9281 30.0278 60.8904 30.0183C59.1054 29.569 57.4841 28.9003 55.4942 28.743C54.6619 28.6772 53.7623 28.8247 53.0005 28.9586Z" fill="#225500"/>
<path fill-rule="evenodd" clip-rule="evenodd" d="M37.4523 44.6807C38.7486 43.0749 39.7701 41.4386 42.0243 39.9393C43.3721 39.0223 44.6917 38.089 46.8079 37.611C48.4227 37.1644 49.3188 37.7959 50.5333 37.9497C52.1141 39.0188 53.8821 39.8258 54.9359 41.6327C56.4753 44.0721 57.658 46.4605 58.4073 48.787C58.7298 50.4222 58.7762 51.8367 58.5343 53.0203L58.0263 53.486L56.0789 50.311L52.2689 46.12L48.5436 46.1623L45.1993 47.0513L40.7966 45.6543C39.7254 45.2128 38.7995 45.9336 37.8333 46.3317L37.4523 44.6807Z" fill="#71C837" stroke="#FF00FF" stroke-width="0.235067"/>
<path fill-rule="evenodd" clip-rule="evenodd" d="M47.9085 36.9028C44.6799 37.0237 42.023 39.3498 39.766 41.2367C38.9213 41.9429 38.0267 43.1557 37.2934 44.2198C36.5602 45.284 36.1758 45.9192 35.8248 46.5801C35.3884 47.4016 35.1005 48.1617 35.4846 48.7995C36.2227 49.0581 36.3225 48.0509 36.6596 47.5195C37.1613 46.7287 38.4598 46.5242 39.3307 46.187C40.2283 45.8537 41.0402 46.0783 42.0321 46.4688C43.0241 46.8593 44.1333 47.4258 45.4638 47.4835C46.3309 47.521 47.1058 47.2619 47.8146 47.0257C48.5234 46.7896 49.1703 46.5752 49.7686 46.568C50.6761 46.5571 51.5947 46.6672 52.3086 47.035C52.8943 47.3368 53.2868 47.9392 53.7399 48.6595C54.1931 49.3799 54.7129 50.223 55.6886 50.6704C56.1359 50.8755 56.6266 51.586 56.952 52.3174C57.2595 53.1999 57.4014 53.8462 58.05 54.2767C58.9899 54.1131 58.9583 53.1044 59.0766 52.3743C59.1928 51.4784 59.2527 50.3637 59.0422 49.4215C58.5228 47.0971 57.3156 44.9879 56.2363 43.0107C55.4882 41.6403 54.5582 40.2539 53.2571 39.2404C51.8056 38.1098 49.9888 36.8249 47.9085 36.9028ZM47.7247 38.0251C49.261 37.9675 51.3059 38.8654 52.7096 39.9588C53.8079 40.8143 54.8935 42.2107 55.6027 43.5099C56.6884 45.4988 57.4041 47.5981 57.8701 49.6835C57.9808 50.179 58.6478 52.5585 58.149 52.7138C57.5957 52.5669 57.0408 49.9697 56.1887 49.579C55.5953 49.3069 55.2049 48.7342 54.7559 48.0206C54.307 47.307 53.8063 46.4576 52.8576 45.9687C51.8694 45.4596 50.7611 45.356 49.754 45.3681C48.8963 45.3785 48.134 45.6538 47.4349 45.8867C46.7358 46.1196 46.1029 46.3091 45.5154 46.2836C44.5078 46.2399 43.4432 45.9454 42.4713 45.3523C41.6817 44.8704 39.2485 45.1011 38.3202 45.6846C38.2196 45.4864 40.0102 43.9861 40.659 43.7794C42.5454 43.1784 44.6992 41.8551 46.0143 41.8771C47.5194 41.9022 49.9122 43.4969 51.8006 44.6696C53.6889 45.8424 54.6125 46.0775 55.1449 46.4747C56.3397 47.3659 56.7988 48.1135 56.8833 47.9821C57.0179 47.7728 56.2018 46.6878 55.895 46.0719C55.5753 45.4302 53.703 44.9028 51.7465 43.6878C49.7899 42.4728 48.1029 41.1688 46.0723 41.1348C44.2316 41.104 42.7304 41.875 40.8606 42.7396C39.8128 43.2241 38.2943 45.0917 37.9395 44.8132C38.5132 44.0419 39.8114 42.3111 40.269 41.9286C42.5327 40.0361 45.0651 38.1247 47.7247 38.0251Z" fill="#5AA02C"/>
<path fill-rule="evenodd" clip-rule="evenodd" d="M40.1505 44.2031C39.9998 44.2041 39.852 44.2457 39.7229 44.3234C39.5937 44.4012 39.4878 44.5122 39.4163 44.645C37.6725 47.7777 36.7282 51.0443 37.2242 54.0377C37.2412 54.1474 37.2798 54.2527 37.3377 54.3474C37.3957 54.4422 37.4718 54.5245 37.5617 54.5896C37.6517 54.6547 37.7536 54.7013 37.8617 54.7268C37.9698 54.7523 38.0818 54.7561 38.1914 54.738C38.3009 54.7199 38.4058 54.6803 38.4999 54.6214C38.5941 54.5625 38.6756 54.4855 38.7398 54.395C38.804 54.3044 38.8496 54.202 38.874 54.0936C38.8984 53.9853 38.9011 53.8732 38.8819 53.7639C38.476 51.3147 39.2593 48.3812 40.8848 45.4612C40.9583 45.3331 40.9967 45.1878 40.9961 45.0401C40.9956 44.8923 40.9561 44.7474 40.8816 44.6198C40.8072 44.4922 40.7004 44.3865 40.572 44.3133C40.4436 44.2402 40.2983 44.2022 40.1505 44.2031Z" fill="#2D5016" stroke="#17280B" stroke-width="0.86" stroke-linecap="round"/>
<path fill-rule="evenodd" clip-rule="evenodd" d="M39.0552 39.4362C38.7922 39.4308 38.5473 39.5693 38.4162 39.7973C35.8488 44.1265 34.5442 50.8339 34.3972 54.6735C34.3598 55.6334 35.7998 55.689 35.8365 54.7291C35.9828 50.9078 37.3222 44.4655 39.6545 40.5329C39.9457 40.0586 39.6117 39.4473 39.0552 39.4362Z" fill="#2D5016" stroke="#17280B" stroke-width="0.86" stroke-linecap="round"/>
<path fill-rule="evenodd" clip-rule="evenodd" d="M42.5875 44.9268C42.4368 44.9272 42.289 44.9683 42.1596 45.0456C42.0301 45.1228 41.9239 45.2335 41.852 45.366C41.852 45.366 40.231 48.1902 39.6559 49.9221C39.1034 51.5864 38.7564 54.5999 38.7564 54.5999C38.7401 54.7106 38.7461 54.8234 38.774 54.9318C38.802 55.0401 38.8512 55.1417 38.919 55.2308C38.9867 55.3198 39.0716 55.3944 39.1685 55.4502C39.2655 55.506 39.3726 55.5418 39.4836 55.5557C39.5947 55.5695 39.7073 55.561 39.815 55.5307C39.9227 55.5004 40.0233 55.4489 40.1108 55.3793C40.1983 55.3096 40.271 55.2231 40.3247 55.125C40.3783 55.0268 40.4118 54.9189 40.4232 54.8076C40.4232 54.8076 40.8366 51.6965 41.2501 50.4513C41.6859 49.1385 43.3151 46.1901 43.3151 46.1901C43.3897 46.0623 43.4292 45.9171 43.4296 45.7692C43.43 45.6212 43.3913 45.4758 43.3175 45.3476C43.2436 45.2194 43.1372 45.1129 43.0091 45.039C42.8809 44.9651 42.7355 44.9264 42.5875 44.9268Z" fill="#2D5016" stroke="#17280B" stroke-width="0.86" stroke-linecap="round"/>
<path fill-rule="evenodd" clip-rule="evenodd" d="M36.2481 38.946C35.8507 38.9321 35.5172 39.2431 35.5033 39.6405C35.2288 45.3004 35.4314 49.9976 36.0812 54.7607C36.2109 55.7123 37.6383 55.5179 37.5086 54.5662C36.8736 49.9108 36.6716 45.2998 36.9427 39.7107C36.968 39.3056 36.6538 38.9596 36.2481 38.946Z" fill="#2D5016" stroke="#17280B" stroke-width="0.86" stroke-linecap="round"/>
<path fill-rule="evenodd" clip-rule="evenodd" d="M31.7373 30.2454H34.7006L39.0186 27.2821L42.109 25.1231L44.3103 24.1917C45.7152 23.8349 46.6273 22.4104 47.3583 20.5934C47.6497 18.8974 49.2535 17.5594 50.745 16.1907L45.538 16.0637L43.506 16.6564L38.3413 17.5031L34.0233 19.9161L30.8906 24.9961L31.7373 30.2454Z" fill="#5AA02C" stroke="black" stroke-width="0.235067"/>
<path fill-rule="evenodd" clip-rule="evenodd" d="M52.4943 15.8131C51.8199 15.4784 51.4434 15.64 50.9659 15.6334C50.453 15.6263 48.7609 15.7767 47.7115 15.767C46.9039 15.7596 45.9588 15.4421 44.9083 15.6109C44.0716 15.7453 43.5209 16.2406 43.0469 16.3451C42.2634 16.5179 41.2499 16.2413 40.1511 16.5092C38.1407 16.9993 36.0126 17.7049 34.3699 19.1193C33.4161 19.9405 32.5155 21.3763 31.8074 22.6277C31.0993 23.879 30.6075 24.9441 30.6075 24.9441C30.8837 26.8313 31.2201 29.2084 31.4185 30.5268C31.4185 30.5268 31.8749 30.606 32.4398 30.6564C33.0047 30.7068 33.6616 30.7408 34.2151 30.5982C37.5471 29.7401 40.0491 27.0867 42.3617 25.5103C43.3209 24.8564 44.7942 24.7118 45.8753 23.7204C47.3528 22.3655 47.7499 20.3675 48.7593 19.0783C49.4618 18.181 50.6905 16.8216 51.106 16.6556C51.4969 16.4995 52.1034 16.2393 52.4943 15.8131ZM47.7036 16.7274C48.1958 16.7342 48.658 16.7088 49.1297 16.6811C47.1993 18.1552 45.2428 19.5892 43.416 21.5852C41.2857 23.9128 38.8972 25.2367 36.4191 26.4112C35.435 26.8776 34.8917 27.8161 34.1887 28.1469C33.2674 28.5803 32.6873 28.61 31.8299 28.4088L31.5336 25.2404C31.5764 25.1484 31.9893 24.2561 32.6435 23.0999C33.3305 21.8859 34.2502 20.4898 34.997 19.8469C36.4459 18.5993 38.4254 17.918 40.3786 17.4418C41.1515 17.2534 42.1554 17.5238 43.2533 17.2818C44.0638 17.1031 44.5967 16.6217 45.0604 16.5594C45.9537 16.4396 46.9249 16.7169 47.7036 16.7274ZM47.5753 19.0994C46.6837 20.5065 46.2445 22.0784 45.2258 23.0126C44.4226 23.7492 43.105 23.9885 41.8894 24.6742C39.0272 26.2887 36.8221 28.8965 33.9638 29.6709C33.6822 29.7472 33.047 29.7465 32.5258 29.7C32.2037 29.6712 32.1135 29.6515 31.9437 29.6259L31.9106 29.2713C32.7371 29.4966 33.7286 29.4764 34.6385 28.9949C35.6393 28.4652 36.2203 27.5683 36.8305 27.279C39.3451 26.0872 41.8753 24.6916 44.1251 22.2334C45.2241 21.0326 46.3856 20.0414 47.5753 19.0994Z" fill="#2D5016"/>
<path fill-rule="evenodd" clip-rule="evenodd" d="M29.9202 20.7552C29.8196 20.7565 29.7204 20.7788 29.629 20.8207C29.5376 20.8627 29.456 20.9233 29.3894 20.9987C29.3229 21.0741 29.2729 21.1626 29.2426 21.2585C29.2123 21.3544 29.2025 21.4556 29.2137 21.5556L30.2456 32.0555L33.3359 54.7978C33.3486 54.8916 33.3796 54.9819 33.4272 55.0636C33.4748 55.1454 33.538 55.217 33.6132 55.2743C33.6885 55.3316 33.7743 55.3735 33.8657 55.3977C33.9572 55.4218 34.0525 55.4277 34.1462 55.4151C34.24 55.4024 34.3303 55.3714 34.412 55.3238C34.4938 55.2762 34.5653 55.2129 34.6227 55.1377C34.68 55.0624 34.7219 54.9766 34.746 54.8852C34.7702 54.7937 34.7761 54.6984 34.7634 54.6047L31.6757 31.8889L30.6478 21.4153C30.6326 21.2336 30.5491 21.0644 30.414 20.9419C30.279 20.8194 30.1025 20.7527 29.9202 20.7552Z" fill="#2D5016" stroke="#112B00" stroke-width="0.86" stroke-linecap="round"/>
<path fill-rule="evenodd" clip-rule="evenodd" d="M31.7797 34.9017C31.8809 33.5381 32.179 32.0268 33.1767 29.991C34.0887 28.6029 35.9708 28.1849 37.4947 27.4087C39.7405 26.9494 42.0268 26.6119 44.6067 27.1547C46.8221 27.2193 49.0376 28.6072 51.253 29.483L56.8833 34.4783L55.1053 34.436L49.1787 36.1293L42.617 39.4313L36.6057 40.4473L33.1767 39.5583L33.0497 39.0503L33.7693 37.6957L31.7797 34.9017Z" fill="#71C837" stroke="black" stroke-width="0.235067"/>
<path fill-rule="evenodd" clip-rule="evenodd" d="M41.7029 26.4205C38.9492 26.4863 35.8403 27.0671 33.6913 28.983C32.3432 30.1848 31.8155 32.0465 31.5548 33.6899C31.4305 34.4735 31.468 35.3373 31.818 36.0936C32.1412 36.7919 32.7553 37.3461 33.2124 37.7896C33.2018 37.7998 33.2018 37.7963 33.1912 37.8068C32.952 38.0428 32.6499 38.3495 32.6171 38.844C32.5934 39.2003 32.6996 39.543 32.9015 39.7859C33.1034 40.0287 33.3663 40.1694 33.6291 40.2688C34.1548 40.4675 34.734 40.5281 35.1954 40.6392C37.2496 41.1339 39.3314 40.5446 41.2337 40.1302C43.709 39.5909 45.6958 38.0923 47.8372 37.2644C50.4389 36.2586 52.8948 34.8241 55.4665 34.7019C56.1185 34.747 56.6423 34.9207 57.2577 35.1305C58.6473 35.4002 58.1946 34.851 57.6837 34.2759C57.6837 34.2759 56.0657 33.2426 55.354 32.6977C53.895 31.5806 52.728 29.8236 50.8627 28.8401C48.0882 27.3771 44.8912 26.3442 41.7029 26.4205ZM41.7267 27.3809C44.691 27.31 47.7448 28.2818 50.4143 29.6894C51.9885 30.5194 53.9135 32.4417 55.5381 33.6905C54.0035 33.516 51.5233 33.2057 50.2 33.1792C47.0255 33.1158 43.3305 33.2353 40.9276 33.7534C39.4139 34.0798 37.6111 34.9943 36.1519 35.8251C35.0571 36.4484 34.3334 36.9193 33.9545 37.1705C33.475 36.7776 33.0368 36.302 32.6965 35.7073C32.3991 35.1879 32.4019 34.4713 32.502 33.8407C32.7477 32.2921 33.2659 30.6489 34.3303 29.7C36.2025 28.0309 39.0947 27.4438 41.7267 27.3809ZM47.7579 34.1331C48.5793 34.1217 49.3979 34.1243 50.1814 34.1397C51.134 34.1584 54.4524 34.0226 55.2507 34.0703C53.3491 34.5293 49.1435 35.5866 47.4906 36.3688C45.2446 37.4318 43.1976 38.7677 41.0017 39.2462C39.0782 39.6653 37.1729 40.1273 35.4203 39.7052C34.8756 39.574 34.3276 39.4627 33.9691 39.3718C33.6262 39.285 33.6347 39.0585 33.5749 38.9075C33.5125 38.75 33.6937 38.6598 33.8659 38.4908C34.1226 38.239 34.43 38.0499 34.7898 37.7944C35.1497 37.5388 35.7747 37.145 36.6268 36.6599C38.0498 35.8497 39.8319 34.9723 41.1287 34.6927C42.8012 34.3321 45.2937 34.1673 47.7579 34.1331V34.1331Z" fill="#447821"/>
<path fill-rule="evenodd" clip-rule="evenodd" d="M28.5621 20.7626L26.8265 19.1539C25.7022 18.7777 24.3615 18.8346 23.0165 18.8999C22.5706 18.5216 22.1399 18.113 21.9158 17.2912C21.7562 16.2586 22.6619 15.8348 23.2281 15.2169L27.0805 13.2272L31.6101 12.5076C31.8828 12.6964 32.2421 12.4521 32.4145 13.1426L32.5838 14.4972L30.7211 17.4182C30.3766 18.6402 29.6965 19.7663 28.5621 20.7626Z" fill="#8DD35F" stroke="#FFCC00" stroke-width="0.235067"/>
<path fill-rule="evenodd" clip-rule="evenodd" d="M31.8893 11.9778C30.6817 11.854 27.8653 12.2917 25.8435 13.232C24.5768 13.8211 22.9212 14.6749 21.9013 15.8527C21.6142 16.1842 21.5852 16.4935 21.5401 16.8157C21.495 17.138 21.4795 17.4305 21.5441 17.7325C21.7274 18.5895 22.4615 19.043 23.1012 19.2658C23.8133 19.5138 24.4571 19.444 24.9824 19.3901C25.5076 19.3363 25.9152 19.3 26.3542 19.4484C26.4851 19.4926 26.912 19.8177 27.2168 20.1389C27.5215 20.4601 27.7446 20.7541 27.7446 20.7541L28.6998 20.0291C28.4005 19.6475 28.1639 19.4078 27.861 19.0793C27.8115 19.0256 27.3243 18.3544 26.6571 17.6029C25.9601 16.8178 25.6996 16.6009 24.9865 16.0425C24.6666 15.7921 24.1355 15.636 24.0457 15.6119C24.7794 15.1139 25.1705 14.8388 25.9012 14.499C25.9945 14.4556 26.5498 14.2384 26.6492 14.1977C26.7091 14.2302 26.9516 14.3601 27.2868 14.5787C27.661 14.8226 28.0707 15.1854 28.1216 15.2732C28.3501 15.6672 28.5605 16.8872 28.6349 17.931C28.7093 18.9747 28.6997 19.877 28.6997 19.877L29.6602 19.8862C29.6602 19.8862 29.6689 18.9503 29.5914 17.8622C29.5138 16.7741 29.4032 15.5691 28.9524 14.7917C28.6928 14.3441 28.25 14.0613 27.8438 13.7968C29.3163 13.3974 30.9585 13.159 31.7305 13.1949C31.8558 13.2007 31.9315 13.3221 31.9792 13.4979C32.0351 13.7036 32.0226 14.0081 31.8906 14.3207L32.9952 14.7877C33.2205 14.2544 33.327 13.6755 33.1368 13.183C32.8619 12.4714 32.5097 12.0415 31.8893 11.9778L31.8893 11.9778ZM23.2612 16.4572C23.4792 16.4507 23.7653 16.5155 24.0192 16.5975C24.3788 16.7135 25.6098 17.8987 26.2622 18.6172C25.8979 18.5995 25.1709 18.4808 24.8743 18.5112C24.3509 18.5649 23.8871 18.465 23.4505 18.313C23.0835 18.1852 22.7571 17.6666 22.7175 17.4812C22.7119 17.4552 22.5635 17.1945 22.5934 16.9811C22.614 16.8338 22.7948 16.6896 22.8233 16.6464C22.9209 16.4987 23.0493 16.4636 23.2612 16.4572Z" fill="#447821"/>
<path fill-rule="evenodd" clip-rule="evenodd" d="M35.4204 12.8885L37.0291 9.12083L41.5164 5.86116L45.4957 3.15183L46.4694 1.4585L47.2737 1.92416L47.0621 3.7445L43.7177 8.78216L43.4214 13.4812L42.5747 15.1322L39.4844 12.8885H35.4204Z" fill="#5AA02C" stroke="#FF00FF" stroke-width="0.235067"/>
<path fill-rule="evenodd" clip-rule="evenodd" d="M46.2272 1.03612C45.8707 1.28232 45.7499 1.76555 45.5922 2.11032C45.3609 2.61617 45.0675 3.12828 44.6265 3.40546C44.6058 3.41758 41.6262 5.16051 40.1498 6.22063C39.0531 7.00804 37.7696 7.76488 36.8147 8.95774C36.342 9.54817 35.9576 10.4339 35.6413 11.2146C35.3249 11.9954 35.1055 12.6566 35.1055 12.6566L36.2432 13.0363C36.2432 13.0363 36.2287 12.1833 36.5293 11.4412C36.83 10.6992 37.2501 9.82894 37.5268 9.48333C38.3018 8.51526 39.5643 7.82813 40.7162 7.00104C41.1057 6.72136 41.9345 5.89329 43.0358 5.26645C44.3666 4.509 45.9254 3.40018 46.3436 2.58754C46.7674 2.7814 44.679 4.73844 43.5911 5.52608C42.1758 6.5508 41.5869 7.52709 41.3589 7.7949C41.0772 8.12572 40.8209 8.51328 40.5704 9.03315C40.32 9.55301 40.0723 10.1579 39.8508 10.7371C39.4077 11.8955 39.0689 12.9543 39.0689 12.9543L39.9844 13.2466C39.9844 13.2466 40.3149 12.2079 40.7464 11.0797C40.9621 10.5156 41.2031 9.92989 41.4343 9.44987C41.6655 8.96984 41.9661 8.3437 42.0573 8.25921C42.3356 8.00143 42.9707 7.19126 43.9042 6.09435C44.9928 4.81517 46.5765 2.95624 46.6559 2.69093C46.9 2.86862 45.5631 5.00923 44.6448 6.45489C43.8467 7.71106 43.2623 8.80535 43.2185 9.52172C43.1267 11.0192 43.0496 11.952 42.9739 12.6808C42.8982 13.4097 42.5742 13.9332 42.1249 14.8183L43.1938 15.3607C43.6899 14.3833 43.9004 13.628 43.9875 12.7889C44.0747 11.9498 44.0582 11.0404 44.1476 9.58083C44.2183 8.42623 45.4103 7.26666 46.0129 6.19152C46.7136 4.94136 47.4651 3.87957 47.6467 2.9689C47.7721 2.34014 47.6483 1.78844 47.4218 1.27292C47.3509 1.11139 47.1866 0.94258 46.89 0.872074C46.6443 0.813662 46.4041 0.914003 46.2272 1.03612Z" fill="#447821"/>
<path fill-rule="evenodd" clip-rule="evenodd" d="M26.6993 22.4556L30.3823 18.688L32.7106 13.862C34.1657 13.0302 35.6317 12.2965 37.1979 12.465C38.5385 12.8138 39.879 12.9021 41.2196 13.989C42.8959 15.0942 44.382 16.3136 45.4953 17.7566L46.3419 19.577L44.4793 18.0953C42.5397 17.2148 40.5624 16.6356 38.5103 16.656C36.3256 16.7748 34.8293 17.7196 33.1763 18.4763L28.8583 21.99L29.0276 23.5563C28.2785 24.0852 27.8559 24.4568 26.9956 24.3183C26.5618 24.4572 26.1489 24.502 25.9373 23.641L26.6993 22.4556Z" fill="#71C837"/>
<path fill-rule="evenodd" clip-rule="evenodd" d="M37.4931 11.9262C35.5037 11.8168 33.5287 12.7502 32.1009 14.0177C31.3374 14.6955 30.9512 15.5833 30.6232 16.4188C30.2952 17.2543 30.0161 18.0527 29.586 18.6453C28.6435 19.944 26.2287 22.1145 25.8929 22.5459C25.5016 23.0488 25.3984 23.5708 25.4307 24.1195C25.4474 24.4015 25.7106 24.7544 26.079 24.859C27.3075 25.2079 27.9758 24.9628 29.099 24.1064L28.9816 22.8951C28.1554 23.5251 27.2167 23.7236 26.6333 23.6777C26.6312 23.6775 26.5597 23.5393 26.5603 23.5372C26.6214 23.326 26.8581 23.3049 26.8701 23.302C28.2517 22.9645 29.4335 22.2209 30.5398 21.5623C32.6047 20.3332 33.9296 18.3087 35.7521 17.7364C38.1388 16.987 40.9449 17.1026 43.3854 17.9005C44.2033 18.1679 44.851 18.5721 45.4412 19.193C46.7118 20.5298 47.1457 20.239 46.3103 18.3834C46.1478 18.0223 45.8735 17.6488 45.302 16.9246C44.7304 16.2003 44.0413 15.4896 43.3893 14.9689C41.759 13.6669 39.8462 12.0556 37.4931 11.9262ZM37.4269 13.1248C39.249 13.225 40.9463 14.304 42.5834 15.6113C42.6562 15.6695 43.2947 16.2171 43.8359 16.6626C44.7541 17.4184 45.7895 18.5158 45.7207 18.605C45.6638 18.6786 44.6666 17.8142 43.4799 17.2017C42.5823 16.7384 41.5354 16.5171 40.9377 16.3974C38.9763 16.0044 36.8995 16.1179 35.3936 16.5908C33.017 17.3371 31.6445 19.5083 29.9273 20.5304C29.6253 20.7102 29.3269 20.8707 29.0277 21.0424C29.5817 20.463 30.1801 19.8685 30.557 19.3491C31.1332 18.5552 31.4275 17.6567 31.741 16.858C32.0546 16.0593 32.3796 15.3755 32.8973 14.916C34.1258 13.8254 35.8697 13.0391 37.4269 13.1248Z" fill="#2D5016"/>
<path fill-rule="evenodd" clip-rule="evenodd" d="M22.593 53.0203L24.8367 51.1999L25.006 46.9243L27.165 42.6486L28.562 41.5056L30.848 42.3523C32.3327 43.243 33.4959 44.6964 34.531 46.3739L37.706 46.2046L37.6637 46.6703L35.8434 48.2366L33.8114 50.6073L31.9487 51.5386C30.0578 51.9836 28.1669 52.4084 26.276 52.3006L24.0324 53.4013C23.2824 53.5895 22.6712 53.6158 22.593 53.0203Z" fill="#5AA02C" stroke="#FF6600" stroke-width="0.235067"/>
<path opacity="0.31" fill-rule="evenodd" clip-rule="evenodd" d="M22.5281 52.9885L24.7717 51.1682L24.9411 46.8925L27.1001 42.6169L28.4971 41.4739L30.7831 42.3205C32.2678 43.2113 33.431 44.6647 34.4661 46.3422L37.6411 46.1729L37.5987 46.6385L35.7784 48.2049L33.7464 50.5755L31.8837 51.5069C29.9929 51.9519 28.102 52.3767 26.2111 52.2689L23.9674 53.3695C23.2174 53.5578 22.6062 53.5841 22.5281 52.9885Z" stroke="#FF6600" stroke-width="0.235067"/>
<path fill-rule="evenodd" clip-rule="evenodd" d="M26.9152 42.1536C26.3582 42.8237 26.0732 43.6159 25.3718 44.9668C24.6705 46.3177 24.3645 47.5772 24.3037 48.5591C24.2454 49.5023 24.5676 50.1336 24.1992 50.9708C23.6797 52.1518 23.3217 52.001 22.5006 52.7779C22.1266 53.1318 22.3427 53.7609 22.8552 53.8111C23.5381 53.8781 24.0581 53.6868 24.6305 53.5315C25.1465 53.3915 25.5046 52.9324 26.3027 52.8031C27.9057 52.5432 29.0167 52.4323 30.7392 52.2231C32.4618 52.014 34.0517 51.1977 35.0882 49.6981C36.1247 48.1986 37.0089 47.7866 38.111 46.7957C38.5646 46.388 38.1906 45.6422 37.5924 45.7612C37.2141 45.8365 37.1354 45.8522 36.5738 45.9067C36.0122 45.9613 35.3289 45.944 35.0855 45.8591C35.0436 45.8445 34.7449 45.6368 34.5312 45.4358C33.8366 44.7824 33.2159 43.5073 32.3974 42.7769C31.3678 41.8581 30.4272 41.2599 29.3045 41.1884C28.1819 41.1169 27.4026 41.5673 26.9152 42.1536ZM29.4354 42.3679C30.6892 42.5818 32.0943 43.9577 33.1924 45.744C33.3165 45.9458 33.7186 46.213 33.8533 46.3558C33.1543 46.4959 32.3098 46.2894 31.7293 46.4782C29.4214 47.2288 29.3615 48.5185 28.5563 49.2646C27.7512 50.0106 27.0556 49.9271 26.1855 50.4892C25.4659 50.9542 25.5165 51.2878 26.429 50.7726C27.3042 50.3977 28.1378 50.4319 29.2512 49.4011C30.0901 48.6244 29.9501 47.9186 32.0295 47.3529C32.9887 47.092 34.2419 46.9083 35.1344 46.6236C35.4562 46.5209 37.2749 46.2063 37.1814 46.7361C37.1146 47.1146 35.1006 48.3905 34.405 49.3858C33.7094 50.3812 32.3664 51.1928 30.5655 51.4229C28.7646 51.6531 27.7895 52.054 26.3033 51.8749C26.1462 51.8559 25.9877 51.8993 25.8628 51.9966C25.2512 52.4727 23.7558 53.3139 23.4214 52.9689C23.4936 52.5675 25.2249 51.7933 25.37 51.3161C25.7183 50.1711 25.4512 49.4386 25.501 48.6332C25.5507 47.8298 25.7837 46.7824 26.4876 45.4281C27.1916 44.0738 27.4469 43.3504 27.8386 42.9209C28.3617 42.3473 28.79 42.2578 29.4354 42.3679Z" fill="#447821"/>
<path fill-rule="evenodd" clip-rule="evenodd" d="M14.804 33.5896L12.0524 35.5369C10.6843 36.5388 9.62607 37.5407 8.70805 38.5426L7.39571 40.9556L7.48038 43.6226L6.76071 44.4269C6.35415 45.625 6.83699 46.3785 7.31105 47.1363L7.86138 45.4429L9.30071 44.2999L10.4437 42.5643L13.7457 40.9133L13.9997 36.8916L14.804 33.5896Z" fill="#5AA02C" stroke="#00FFFF" stroke-width="0.235067"/>
<path fill-rule="evenodd" clip-rule="evenodd" d="M14.2417 33.6709C12.8131 34.4392 8.02574 37.9711 7.26725 40.4231C6.89776 41.6175 6.98605 42.4583 7.05161 43.4539C6.79188 43.7961 6.37647 44.6241 6.29094 45.0863C6.1864 45.6512 6.34899 46.2941 6.79497 46.8683L7.47098 47.7401L7.83478 46.699C7.97833 46.2875 8.13345 45.9361 8.26473 45.7452C8.29553 45.5305 8.60998 45.3488 8.76082 45.2689C9.51698 44.4911 9.46506 44.586 9.88356 43.9735C10.1323 43.6095 10.2905 43.1624 10.619 42.8683C10.8698 42.6438 12.1961 42.1016 12.7557 41.6145C13.1162 41.3007 12.9576 41.0454 12.5999 41.1732C11.9135 41.4184 10.7407 42.126 10.6089 42.1587C10.3129 42.2322 10.1604 42.4881 9.97817 42.6885C9.79358 42.8915 9.69354 43.3021 9.5043 43.5147C9.20388 43.8522 8.809 44.2664 8.50815 44.6035C8.08729 44.9266 7.17729 45.5258 7.29238 46.3167C7.093 46.388 6.74013 44.7796 7.45246 44.4222C7.67931 44.3321 7.88198 43.7696 7.92738 43.6232C7.74568 41.6315 7.9065 41.1549 8.16816 40.3503C8.87463 38.178 12.2348 35.6999 14.5076 34.1405L14.2417 33.6709ZM13.8911 36.621C13.4646 36.8296 11.4222 38.2047 11.1064 38.4929C10.8028 38.77 9.97238 39.8665 9.65247 40.2696C9.01265 41.0757 8.57934 41.8544 8.35998 42.5715C8.24071 42.9614 8.14748 43.5743 8.2515 43.6867C8.33367 43.7755 8.35619 43.4818 8.7595 42.7236C8.97422 42.32 9.38511 41.3285 9.99246 40.5633C10.2961 40.1807 11.1598 39.0973 11.4278 38.8435C11.6836 38.6013 13.5624 37.3652 13.862 37.219L13.8911 36.621Z" fill="#447821"/>
<path fill-rule="evenodd" clip-rule="evenodd" d="M24.3712 38.6272C24.3712 38.6272 20.8576 38.1192 20.4766 38.0769C20.0956 38.0346 17.4286 38.4156 16.2432 39.1352C14.2585 39.976 12.4588 41.6493 10.6976 43.4956C9.26906 45.1972 9.24737 47.3678 9.13123 49.5069L10.1896 52.8512L11.4596 56.4496L12.3909 53.6133L17.2169 50.9886C18.9949 50.3197 20.7729 48.4701 22.5509 46.5859L23.5246 43.9612L23.6939 41.7599C23.9675 41.0027 24.21 40.0586 24.3712 38.6272Z" fill="#5AA02C" stroke="#FF00FF" stroke-width="0.235067"/>
<path fill-rule="evenodd" clip-rule="evenodd" d="M20.0373 37.6507C17.5888 37.6646 15.8426 38.5567 13.9227 39.9195C11.9171 41.3432 9.9005 42.8384 9.21316 45.4321C8.7253 47.2731 8.30126 49.4886 9.13379 51.4315C9.44904 52.1673 9.96186 53.3187 9.97491 53.3551C9.99233 53.4037 10.2109 54.1714 10.4842 54.9717C10.6253 55.3846 10.7983 55.7809 10.9208 56.1107C11.0332 56.4132 11.3349 56.8239 11.5181 56.9823C11.6468 57.0936 11.751 56.723 11.8669 56.5286C12.0439 56.2319 12.0921 55.9368 12.1585 55.6497C12.2236 55.368 12.4136 54.9725 12.4926 54.6121C12.569 54.2634 12.5905 53.9042 12.8823 53.7388C14.8418 52.6282 17.0314 51.8837 18.7726 50.6576C20.484 49.4262 22.4251 48.0712 23.4861 46.0235C23.9843 45.062 24.0096 44.0328 24.0325 43.0892C24.0553 42.1457 24.0766 41.2804 24.3685 40.5876C24.4502 40.3937 24.3914 39.3872 24.6595 39.2382C24.8985 39.1055 25.2077 39.1712 25.4246 38.9421C25.5349 38.8255 25.6963 38.5967 25.4075 38.4249C24.6213 37.9573 23.748 38.1135 22.8141 38.0833C21.9229 38.0545 21.2277 37.644 20.0373 37.6507H20.0373ZM20.0169 38.5014C20.8165 38.4968 22.4556 38.8609 23.4462 38.9535C23.4462 38.9535 19.4818 40.5222 17.9034 41.8946C15.3751 44.0931 13.0766 46.8588 12.0045 50.0332C11.7352 50.8307 11.5694 51.6989 11.7684 51.8761C11.9201 52.0112 12.2438 51.2787 12.7598 50.172C14.1782 47.1304 15.4309 45.1542 17.7811 42.887C19.3102 41.412 24.0168 39.2535 24.0168 39.2535C24.1454 39.9995 22.9502 42.1948 22.9283 43.1006C22.9058 44.03 22.7593 44.8168 22.4199 45.4718C21.5392 47.1715 19.8547 48.4895 18.1402 49.7231C16.3822 50.9879 12.7938 53.0033 12.3628 53.1831C12.1223 53.2834 11.9983 53.7229 11.8948 54.5956C11.8127 55.2871 11.5635 55.4307 11.5635 55.4307C11.4675 55.4227 11.1295 54.5288 10.999 54.0348C10.6663 52.7763 10.5854 51.7712 10.2371 50.9593C9.59972 49.4735 9.90565 47.5054 10.3734 45.7404C10.9408 43.5992 12.6286 42.3101 14.6173 40.8985C16.4653 39.5867 17.8448 38.5137 20.0169 38.5014Z" fill="#2D5016"/>
<path fill-rule="evenodd" clip-rule="evenodd" d="M16.2857 29.9486C14.9792 32.7066 14.2787 35.3888 13.8727 38.0342L13.7457 43.0296L14.2961 46.0352L14.6771 46.7972C15.2404 46.935 15.5057 46.1787 15.7354 45.3156L17.0477 40.5319C17.7924 39.6023 18.5305 38.7061 19.1644 38.3306L23.1437 36.2139L26.3611 34.4782C27.7391 33.6797 27.8718 33.2644 27.8004 32.9119L27.0807 32.4039C26.1494 31.9219 25.2181 32.0505 24.2867 32.2346L21.6621 33.5469L19.4184 32.4039L20.7307 30.8799L19.4607 29.6522C18.3031 29.3539 17.2182 29.3465 16.2857 29.9486Z" fill="#8DD35F" stroke="#CCFF00" stroke-width="0.235067"/>
<path fill-rule="evenodd" clip-rule="evenodd" d="M18.1827 29.0674C17.2276 29.0498 16.1388 29.3571 15.8543 29.8829C15.4631 30.6063 14.2784 33.6567 14.0089 35.5761C13.7988 37.0717 13.3792 37.9253 13.397 41.1243C13.4008 41.8109 13.6459 43.6853 13.7668 44.6513C13.8272 45.1344 13.9097 45.5693 14.0261 45.9451C14.2105 46.5406 14.4162 47.2189 14.8786 47.348C15.39 47.2586 15.9079 46.264 16.0739 45.879C16.2399 45.494 16.3319 45.0646 16.4272 44.605C16.6177 43.6858 16.7763 42.6129 17.1812 41.6334C17.5861 40.6539 17.8431 40.2059 18.4172 39.4577C18.8007 38.9578 20.115 38.328 21.0557 37.704C22.2729 36.8965 23.7798 36.5406 25.1677 35.7177C26.0109 35.2177 27.137 34.5842 27.7394 34.0495C28.1029 33.7268 28.3835 33.4544 28.4075 33.011C28.4353 32.4958 28.1857 32.2693 27.8042 32.0545C27.2653 31.7511 26.6237 32.0019 26.2604 31.8561C25.6505 31.6113 25.0407 31.7398 24.4308 31.8944C23.6713 32.087 23.0775 32.3433 22.5959 32.675C22.2863 32.8882 22.0997 32.9044 21.8303 32.9435C21.3898 32.9598 21.1494 32.6799 20.52 32.1794C20.8626 31.9008 20.902 31.5476 21.0349 31.1602C21.1044 30.9575 21.164 30.7085 21.0984 30.4458C21.0327 30.1832 20.8531 29.9522 20.638 29.7963C20.0345 29.3589 19.1377 29.0849 18.1827 29.0674ZM18.2746 29.8846C18.9577 29.8971 19.9915 30.3298 19.9819 30.6982C19.9683 31.2199 19.7627 31.337 19.4053 31.6716C19.3067 31.7638 18.6744 31.9134 18.6033 32.2635C18.5678 32.4386 18.6591 32.6413 18.8494 32.7619C19.1181 32.9321 19.2483 33.062 19.663 33.1631C17.3329 34.9597 16.4871 37.6803 15.6374 38.7802C15.0565 39.5321 14.6027 44.5148 14.5074 45.6652C13.3329 42.4198 14.5421 37.7151 14.7977 35.8953C15.0122 34.3681 16.4968 30.8358 16.5509 30.7333C16.7998 30.261 17.5782 29.8718 18.2746 29.8846ZM26.6478 32.6365C27.1873 32.745 27.2261 33.1278 26.9716 33.3753C26.8228 33.52 25.5963 34.5828 24.7472 35.0862C23.4734 35.8414 21.8114 36.0105 20.4501 36.9136C19.4917 37.5494 18.2787 38.3465 17.6363 39.1837C17.2535 39.6826 16.9793 39.9613 16.4518 41.2828C16.1425 42.0575 15.4459 46.0887 14.9869 45.6353C15.0351 43.75 15.9172 39.9334 16.4959 39.2102C17.4694 37.9936 18.3361 35.0802 20.6873 33.4717C20.7773 33.557 21.1402 33.7332 21.3333 33.8576C21.7126 34.1017 21.9568 33.9872 22.3195 33.9027C22.6822 33.8181 23.1845 33.5209 23.4746 33.3564C24.0549 33.0275 24.3945 32.7998 24.5118 32.732C25.1285 32.3759 26.0376 32.5137 26.6478 32.6365Z" fill="#71C837"/>
<path fill-rule="evenodd" clip-rule="evenodd" d="M21.1329 44.1092L26.8903 38.4366L28.9434 36.8279L34.1293 33.2507C34.4994 33.3171 34.738 33.4821 34.6584 33.8857C34.6584 34.496 34.252 34.9031 34.0446 35.4097L33.7694 41.0189L32.5418 43.7494L29.3033 43.2414L25.7896 43.8976L21.6409 44.5749L21.1329 44.1092Z" fill="#C6E9AF" stroke="#800080" stroke-width="0.235067"/>
<path fill-rule="evenodd" clip-rule="evenodd" d="M33.1912 33.2942C32.8448 33.4965 32.5156 33.772 32.1435 34.1131C30.693 35.1631 28.3501 36.8872 26.6243 38.152L22.2282 42.3774C21.8178 42.7652 21.5179 43.0837 21.3008 43.4278C20.915 43.9813 20.6562 44.145 20.8775 44.6395C21.3614 45.1234 21.8338 44.8869 22.256 44.838C22.6782 44.7891 25.2184 44.3745 25.4954 44.2907C26.8105 44.0886 28.1256 44.3065 29.4408 43.6844C29.8083 43.8799 30.1815 44.114 30.5256 44.1421C31.0384 44.184 31.4783 44.1435 32.1699 44.2056L32.6396 44.2466L32.92 43.8696C33.9655 42.4626 34.3534 41.0037 34.477 39.5805C34.5672 38.5426 34.5168 37.5238 34.4785 36.5578C34.7379 35.8611 34.3592 35.431 34.4454 34.9823C35.0704 34.2848 35.211 33.8396 34.8343 33.1408C34.2689 32.753 33.7271 33.0583 33.1913 33.2942H33.1912ZM33.5021 36.5645C33.5385 37.5115 33.5418 38.5327 33.4404 39.5383C33.303 40.9003 32.9737 42.2337 32.2745 43.3153C31.8514 43.3019 30.8218 43.0129 30.6208 42.9965C30.1067 42.9079 29.7042 43.019 29.3098 42.6856C27.9631 43.5215 25.8849 43.3449 24.3266 43.4317C23.2774 43.4901 21.975 44.2227 21.8436 44.0744C21.5432 43.7351 26.0162 39.8722 27.3678 38.5727C27.622 38.7699 27.4629 39.0158 28.3231 39.1417C29.0382 39.8114 30.2967 40.9095 31.0908 41.2233C30.772 40.3975 30.2443 38.6132 29.2596 38.3793C29.4594 37.9379 29.4769 37.4966 29.3979 37.0553L33.4395 34.0343C33.4159 34.0922 34.0864 33.5485 34.351 33.7133C34.861 34.0309 33.7962 34.9531 33.6578 35.4506C33.5122 35.9744 33.5305 36.4498 33.5021 36.5645Z" fill="#8DD35F"/>
<path fill-rule="evenodd" clip-rule="evenodd" d="M36.648 45.3584L39.188 42.268L41.4317 39.982C42.9167 39.3 44.141 39.5305 45.411 39.601L45.4534 42.649L46.3424 43.919L47.4007 44.7657L47.443 45.3584C46.9601 45.6031 46.7886 45.3804 46.5117 45.316L45.157 44.808C43.6185 45.0597 42.3103 45.4759 41.5587 46.2897C39.9011 47.5738 38.4892 49.1543 37.6217 50.4384L35.9284 50.396C35.5556 49.5639 34.9044 48.8362 35.378 47.6867L36.648 45.3584Z" fill="#71C837" stroke="#008000" stroke-width="0.235067"/>
<path fill-rule="evenodd" clip-rule="evenodd" d="M44.9427 39.152C42.3845 39.1392 41.2386 39.8014 40.4911 40.3308C39.5386 41.0053 39.0841 41.5532 38.721 42.118C38.358 42.6828 38.076 43.2367 37.2896 44.1712C36.3804 45.2518 35.7761 45.9612 35.3754 46.7059C34.9747 47.4506 34.8228 48.2172 34.9719 49.286C35.121 50.3547 35.8382 50.9219 36.529 51.053C36.8743 51.1186 37.2131 51.0918 37.5185 50.9591C37.7525 50.8573 37.9305 50.6342 38.1072 50.4008C39.5714 48.4663 41.1363 46.7532 42.1079 46.3003C42.4501 46.1408 43.9212 45.5891 45.1713 45.125C45.2844 45.083 45.6609 45.1144 45.9719 45.3155C46.4457 45.6218 46.8858 45.7729 47.2697 45.6846C47.6533 45.5963 47.7078 45.224 47.701 45.0179C47.674 44.2005 47.1475 44.2333 46.6385 43.8356C46.3333 43.5971 45.9979 42.754 45.9296 42.622C45.6025 41.9898 45.8356 41.1854 45.9481 40.4974C45.9878 40.255 46.0494 39.9913 45.8754 39.6653C45.6535 39.2498 45.3428 39.154 44.9427 39.152H44.9427ZM44.8489 40.0746C44.7945 40.4321 44.7644 41.1658 44.8024 41.9115C44.8275 42.4017 45.0691 42.9135 45.3018 43.2331C45.4243 43.4013 46.0738 43.8729 46.5297 44.318C46.7994 44.5813 47.2932 44.972 47.2593 45.0819C47.1743 45.3574 46.5892 44.9798 46.2933 44.8224C45.7078 44.5109 44.9038 44.556 44.7034 44.5811C43.5293 44.7279 42.5513 44.9401 41.519 45.1343C40.6799 45.2921 39.7947 45.3842 38.8904 45.9637C38.0031 46.5323 37.4182 47.6819 37.0303 49.8597C37.022 49.9069 36.5925 50.2033 36.4665 50.1794C36.2219 50.1329 36.1098 49.6709 36.0408 49.1229C35.9395 48.3181 36.1385 47.8196 36.4324 47.2734C36.69 46.7947 37.1085 46.1229 37.8453 45.3856C38.7401 44.4902 39.5985 44.0818 40.3747 43.8338C41.411 43.5027 42.479 43.3033 43.9233 43.5772C44.7524 43.7345 45.0495 43.2762 44.0246 43.097C43.2819 42.9671 42.6127 42.8888 41.9807 42.8853C41.3487 42.8818 40.7772 43.2356 40.1564 43.1472C39.8398 43.1022 36.905 45.1702 36.68 46.0222C36.4692 45.7731 39.1508 42.6458 39.4253 42.423C39.8843 42.0504 39.9612 41.6523 40.822 41.0428C41.4474 40.5999 42.3587 39.7019 44.8489 40.0746H44.8489ZM41.7886 45.84C40.6145 46.4145 38.525 48.247 37.8423 49.6313C37.7574 48.1583 38.7357 46.945 39.1559 46.7062C39.4524 46.5377 41.3449 45.9377 41.7886 45.84Z" fill="#5AA02C"/>
</svg>
