<?xml version="1.0" encoding="iso-8859-1"?>
<!-- Generator: Adobe Illustrator 16.0.0, SVG Export Plug-In . SVG Version: 6.00 Build 0)  -->
<!DOCTYPE svg PUBLIC "-//W3C//DTD SVG 1.1//EN" "http://www.w3.org/Graphics/SVG/1.1/DTD/svg11.dtd">
<svg version="1.1" id="Capa_1" xmlns="http://www.w3.org/2000/svg" xmlns:xlink="http://www.w3.org/1999/xlink" x="0px" y="0px"
	 width="40px" height="40px" viewBox="0 0 40 40" style="enable-background:new 0 0 40 40;" xml:space="preserve">
<g>
	<path d="M20,0C8.973,0,0,8.973,0,20c0,11.027,8.973,20,20,20c11.027,0,20-8.973,20-20C40,8.973,31.027,0,20,0z M27.059,22.281
		h-9.187l2.142,2.521c0.815,0.96,0.698,2.399-0.263,3.216c-0.429,0.363-0.953,0.543-1.476,0.543c-0.646,0-1.288-0.272-1.739-0.806
		l-5.334-6.278c-0.723-0.853-0.723-2.103,0-2.953l5.334-6.279c0.814-0.961,2.254-1.078,3.215-0.264
		c0.961,0.815,1.078,2.256,0.263,3.217l-2.142,2.521h9.187c1.26,0,2.28,1.021,2.28,2.281S28.318,22.281,27.059,22.281z"/>
</g>
</svg>
