<?xml version="1.0" encoding="iso-8859-1"?>
<!-- Generator: Adobe Illustrator 19.0.0, SVG Export Plug-In . SVG Version: 6.00 Build 0)  -->
<svg xmlns="http://www.w3.org/2000/svg" xmlns:xlink="http://www.w3.org/1999/xlink" version="1.1" id="Layer_1" x="0px" y="0px" viewBox="0 0 512 512" style="enable-background:new 0 0 512 512;" xml:space="preserve">
<g>
	<g>
		<path d="M459.61,94.159l-174.9-87.45c-0.016-0.007-0.03-0.016-0.046-0.023c-17.948-8.92-39.379-8.919-57.371,0.023L52.438,94.136    c-22.037,10.95-35.734,33.04-35.748,57.658v208.067c-0.141,24.628,13.428,46.805,35.484,57.918l174.893,87.447    c9.025,4.517,18.925,6.774,28.825,6.774c9.898,0,19.796-2.258,28.816-6.771l174.855-87.427    c22.038-10.95,35.735-33.041,35.747-57.658v-208.36C495.299,127.177,481.602,105.088,459.61,94.159z M453.939,360.135    c-0.005,8.801-4.904,16.702-12.832,20.641L266.202,468.23c-6.456,3.231-14.165,3.231-20.627-0.004L70.732,380.805    c-7.877-3.97-12.732-11.915-12.671-20.736c0-0.048,0-0.096,0-0.143v-208.12c0.005-8.803,4.905-16.704,12.833-20.644    l174.854-87.427c3.21-1.595,6.732-2.393,10.253-2.393c3.518,0,7.036,0.796,10.242,2.388l174.91,87.454    c7.883,3.917,12.782,11.818,12.786,20.61V360.135z"/>
	</g>
</g>
<g>
	<g>
		<path d="M486.131,118.932c-5.109-10.218-17.536-14.359-27.753-9.25L256.001,210.87L53.623,109.681    c-10.219-5.109-22.644-0.967-27.752,9.25c-5.11,10.219-0.967,22.644,9.25,27.752L246.749,252.5    c2.912,1.455,6.081,2.183,9.251,2.183c3.17,0,6.339-0.728,9.25-2.184L476.88,146.684    C487.099,141.575,491.24,129.15,486.131,118.932z"/>
	</g>
</g>
<g>
	<g>
		<path d="M256.001,213.312c-11.424,0-20.685,9.262-20.685,20.685V491.1c0,11.425,9.262,20.685,20.685,20.685    c11.424,0,20.685-9.261,20.685-20.685V233.998C276.686,222.574,267.424,213.312,256.001,213.312z"/>
	</g>
</g>
<g>
</g>
<g>
</g>
<g>
</g>
<g>
</g>
<g>
</g>
<g>
</g>
<g>
</g>
<g>
</g>
<g>
</g>
<g>
</g>
<g>
</g>
<g>
</g>
<g>
</g>
<g>
</g>
<g>
</g>
</svg>
