<svg height="128" width="128" xmlns="http://www.w3.org/2000/svg"><g fill="none" fill-rule="evenodd"><path d="m0 128h128v-128h-128z" fill="none"/><path d="m122.804 23.548v32l5.196-3v-32z" fill="#3a485f"/><path d="m95.091 7.548 27.713 16 5.195-3-27.712-16z" fill="#fff"/><path d="m95.091 7.548v32l27.712 16v-32z" fill="#ced0d1"/><path d="m103.751 32.548c0 1.104.775 2.448 1.733 3 .956.552 1.732.104 1.732-1s-.776-2.448-1.732-3c-.957-.552-1.733-.104-1.733 1" fill="#e5e6e8"/><path d="m110.68 36.548c0 1.104.775 2.448 1.732 3 .956.552 1.732.104 1.732-1s-.776-2.448-1.732-3c-.957-.552-1.732-.104-1.732 1m-6.929-12c0 1.104.775 2.448 1.733 3 .956.552 1.732.104 1.732-1s-.776-2.448-1.732-3c-.957-.552-1.733-.104-1.733 1" fill="#697587"/><path d="m110.68 28.548c0 1.104.775 2.448 1.732 3 .956.552 1.732.104 1.732-1s-.776-2.448-1.732-3c-.957-.552-1.732-.104-1.732 1" fill="#e5e6e8"/><path d="m112.412 37.548-3.928 2.268a5.998 5.998 0 0 0 -3 5.196v9.112a6.001 6.001 0 0 1 -3.007 5.2l-22.975 13.225m25.981-47.001-3.928 2.268a5.999 5.999 0 0 1 -6 0l-7.855-4.536a6.004 6.004 0 0 0 -6 0l-22.983 13.269" stroke="#697587" stroke-linecap="round" stroke-linejoin="round" stroke-width="1.5"/><path d="m95.086 39.55v48l5.196-3v-48z" fill="#3a485f"/><path d="m58.713 12.55-5.196 3 41.57 24 5.195-3z" fill="#fff"/><path d="m53.517 15.55v48l41.57 24v-48z" fill="#ced0d1"/><path d="m62.177 56.55c0 1.104.775 2.448 1.732 3 .956.552 1.732.104 1.732-1s-.776-2.448-1.732-3c-.957-.552-1.732-.104-1.732 1m6.929 4c0 1.104.775 2.448 1.732 3 .956.552 1.732.104 1.732-1s-.776-2.448-1.732-3c-.957-.552-1.732-.104-1.732 1m6.928 4c0 1.104.775 2.448 1.732 3 .956.552 1.732.104 1.732-1s-.776-2.448-1.732-3c-.957-.552-1.732-.104-1.732 1" fill="#e5e6e8"/><path d="m82.962 68.55c0 1.104.775 2.448 1.732 3 .956.552 1.732.104 1.732-1s-.776-2.448-1.732-3c-.957-.552-1.732-.104-1.732 1" fill="#697587"/><path d="m62.177 48.55c0 1.105.775 2.448 1.732 3 .956.552 1.732.105 1.732-1 0-1.104-.776-2.448-1.732-3-.957-.552-1.732-.104-1.732 1m6.929 4c0 1.105.775 2.448 1.732 3 .956.552 1.732.105 1.732-1 0-1.104-.776-2.448-1.732-3-.957-.552-1.732-.104-1.732 1m6.928 4c0 1.105.775 2.448 1.732 3 .956.552 1.732.105 1.732-1 0-1.104-.776-2.448-1.732-3-.957-.552-1.732-.104-1.732 1m6.928 4c0 1.105.775 2.448 1.732 3 .956.552 1.732.105 1.732-1 0-1.104-.776-2.448-1.732-3-.957-.552-1.732-.104-1.732 1" fill="#e5e6e8"/><path d="m62.177 40.55c0 1.105.775 2.448 1.732 3 .956.553 1.732.105 1.732-1 0-1.104-.776-2.447-1.732-3-.957-.552-1.732-.104-1.732 1" fill="#697587"/><path d="m69.106 44.55c0 1.105.775 2.448 1.732 3 .956.553 1.732.105 1.732-1 0-1.104-.776-2.447-1.732-3-.957-.552-1.732-.104-1.732 1m6.928 4c0 1.105.775 2.448 1.732 3 .956.553 1.732.105 1.732-1 0-1.104-.776-2.447-1.732-3-.957-.552-1.732-.104-1.732 1m6.928 4c0 1.105.775 2.448 1.732 3 .956.553 1.732.105 1.732-1 0-1.104-.776-2.447-1.732-3-.957-.552-1.732-.104-1.732 1" fill="#e5e6e8"/><path d="m62.177 32.55c0 1.105.775 2.448 1.732 3 .956.553 1.732.105 1.732-1 0-1.104-.776-2.447-1.732-3-.957-.551-1.732-.104-1.732 1" fill="#697587"/><path d="m69.106 36.55c0 1.105.775 2.448 1.732 3 .956.553 1.732.105 1.732-1 0-1.104-.776-2.447-1.732-3-.957-.551-1.732-.104-1.732 1" fill="#e5e6e8"/><path d="m76.034 40.55c0 1.105.775 2.448 1.732 3 .956.553 1.732.105 1.732-1 0-1.104-.776-2.447-1.732-3-.957-.551-1.732-.104-1.732 1" fill="#697587"/><path d="m82.962 44.55c0 1.105.775 2.448 1.732 3 .956.553 1.732.105 1.732-1 0-1.104-.776-2.447-1.732-3-.957-.551-1.732-.104-1.732 1" fill="#e5e6e8"/><path d="m63.91 33.551-3.93 2.269a5.999 5.999 0 0 1 -6 0l-7.856-4.535a5.999 5.999 0 0 0 -6 0l-22.981 13.267m19.226 12.901 27.54-15.867-3.928 2.268a5.999 5.999 0 0 1 -6 0l-.93-.537a6 6 0 0 0 -5.995-.003l-24.543 14.139m62.353 11.999-3.928 2.268a5.997 5.997 0 0 0 -3 5.196v9.112a6.001 6.001 0 0 1 -3.007 5.2l-22.975 13.225" stroke="#697587" stroke-linecap="round" stroke-linejoin="round" stroke-width="1.5"/><path d="m56.7 53.73 6.929-4.032" fill="#e5e6e8"/><path d="m57.768 85.22 27.099-15.769m-33.563 3.377 16.533-9.545a6.001 6.001 0 0 0 3-5.197v-9.079a6 6 0 0 1 2.991-5.19l3.937-2.283" stroke="#697587" stroke-linecap="round" stroke-linejoin="round" stroke-width="1.5"/><path d="m60.617 59.453v64l5.196-3v-64z" fill="#3a485f"/><path d="m10.388 24.453-5.196 3 55.425 32 5.197-3z" fill="#fff"/><path d="m5.192 27.453v64l55.425 32v-64z" fill="#ced0d1"/><path d="m13.852 84.452c0 1.104.775 2.448 1.732 3 .956.552 1.732.104 1.732-1s-.776-2.448-1.732-3c-.957-.552-1.732-.104-1.732 1m6.928 4c0 1.104.775 2.448 1.732 3 .956.552 1.732.104 1.732-1s-.776-2.448-1.732-3c-.957-.552-1.732-.104-1.732 1m6.929 4c0 1.104.774 2.448 1.732 3 .956.552 1.732.104 1.732-1s-.776-2.448-1.732-3c-.957-.552-1.732-.104-1.732 1m6.928 4c0 1.104.775 2.448 1.732 3 .956.552 1.732.104 1.732-1s-.776-2.448-1.732-3c-.957-.552-1.732-.104-1.732 1m6.928 4c0 1.104.775 2.448 1.732 3 .956.552 1.732.104 1.732-1s-.776-2.448-1.732-3c-.957-.552-1.732-.104-1.732 1" fill="#e5e6e8"/><path d="m48.493 104.452c0 1.104.775 2.448 1.732 3 .956.552 1.732.104 1.732-1s-.776-2.448-1.732-3c-.957-.552-1.732-.104-1.732 1m-34.641-28c0 1.104.775 2.448 1.732 3 .956.552 1.732.104 1.732-1s-.776-2.448-1.732-3c-.957-.552-1.732-.104-1.732 1" fill="#697587"/><path d="m20.78 80.452c0 1.104.775 2.448 1.732 3 .956.552 1.732.104 1.732-1s-.776-2.448-1.732-3c-.957-.552-1.732-.104-1.732 1m6.929 4c0 1.104.774 2.448 1.732 3 .956.552 1.732.104 1.732-1s-.776-2.448-1.732-3c-.957-.552-1.732-.104-1.732 1m6.928 4c0 1.104.775 2.448 1.732 3 .956.552 1.732.104 1.732-1s-.776-2.448-1.732-3c-.957-.552-1.732-.104-1.732 1m6.928 4c0 1.104.775 2.448 1.732 3 .956.552 1.732.104 1.732-1s-.776-2.448-1.732-3c-.957-.552-1.732-.104-1.732 1m6.928 4c0 1.104.775 2.448 1.732 3 .956.552 1.732.104 1.732-1s-.776-2.448-1.732-3c-.957-.552-1.732-.104-1.732 1m-34.641-28c0 1.104.775 2.448 1.732 3 .956.552 1.732.104 1.732-1s-.776-2.448-1.732-3c-.957-.552-1.732-.104-1.732 1m6.928 4c0 1.104.775 2.448 1.732 3 .956.552 1.732.104 1.732-1s-.776-2.448-1.732-3c-.957-.552-1.732-.104-1.732 1m6.929 4c0 1.104.774 2.448 1.732 3 .956.552 1.732.104 1.732-1s-.776-2.448-1.732-3c-.957-.552-1.732-.104-1.732 1m6.928 4c0 1.104.775 2.448 1.732 3 .956.552 1.732.104 1.732-1s-.776-2.448-1.732-3c-.957-.552-1.732-.104-1.732 1m6.928 4c0 1.104.775 2.448 1.732 3 .956.552 1.732.104 1.732-1s-.776-2.448-1.732-3c-.957-.552-1.732-.104-1.732 1" fill="#e5e6e8"/><path d="m48.493 88.452c0 1.104.775 2.448 1.732 3 .956.552 1.732.104 1.732-1s-.776-2.448-1.732-3c-.957-.552-1.732-.104-1.732 1" fill="#697587"/><path d="m13.852 60.452c0 1.104.775 2.448 1.732 3 .956.552 1.732.104 1.732-1s-.776-2.448-1.732-3c-.957-.552-1.732-.104-1.732 1m6.928 4c0 1.104.775 2.448 1.732 3 .956.552 1.732.104 1.732-1s-.776-2.448-1.732-3c-.957-.552-1.732-.104-1.732 1m6.929 4c0 1.104.774 2.448 1.732 3 .956.552 1.732.104 1.732-1s-.776-2.448-1.732-3c-.957-.552-1.732-.104-1.732 1m6.928 4c0 1.104.775 2.448 1.732 3 .956.552 1.732.104 1.732-1s-.776-2.448-1.732-3c-.957-.552-1.732-.104-1.732 1m6.928 4c0 1.104.775 2.448 1.732 3 .956.552 1.732.104 1.732-1s-.776-2.448-1.732-3c-.957-.552-1.732-.104-1.732 1m6.928 4c0 1.104.775 2.448 1.732 3 .956.552 1.732.104 1.732-1s-.776-2.448-1.732-3c-.957-.552-1.732-.104-1.732 1m-34.641-28c0 1.105.775 2.448 1.732 3 .956.552 1.732.105 1.732-1 0-1.104-.776-2.447-1.732-3-.957-.552-1.732-.104-1.732 1" fill="#e5e6e8"/><path d="m20.78 56.452c0 1.105.775 2.448 1.732 3 .956.552 1.732.105 1.732-1 0-1.104-.776-2.447-1.732-3-.957-.552-1.732-.104-1.732 1m6.929 4c0 1.105.774 2.448 1.732 3 .956.552 1.732.105 1.732-1 0-1.104-.776-2.447-1.732-3-.957-.552-1.732-.104-1.732 1" fill="#697587"/><path d="m34.637 64.452c0 1.105.775 2.448 1.732 3 .956.552 1.732.105 1.732-1 0-1.104-.776-2.447-1.732-3-.957-.552-1.732-.104-1.732 1m6.928 4c0 1.105.775 2.448 1.732 3 .956.552 1.732.105 1.732-1 0-1.104-.776-2.447-1.732-3-.957-.552-1.732-.104-1.732 1m6.928 4c0 1.105.775 2.448 1.732 3 .956.552 1.732.105 1.732-1 0-1.104-.776-2.447-1.732-3-.957-.552-1.732-.104-1.732 1" fill="#e5e6e8"/><path d="m13.852 44.453c0 1.104.775 2.447 1.732 3 .956.552 1.732.104 1.732-1 0-1.105-.776-2.448-1.732-3-.957-.553-1.732-.105-1.732 1" fill="#697587"/><path d="m20.78 48.453c0 1.104.775 2.447 1.732 3 .956.552 1.732.104 1.732-1 0-1.105-.776-2.448-1.732-3-.957-.553-1.732-.105-1.732 1m6.929 4c0 1.104.774 2.447 1.732 3 .956.552 1.732.104 1.732-1 0-1.105-.776-2.448-1.732-3-.957-.553-1.732-.105-1.732 1m6.928 4c0 1.104.775 2.447 1.732 3 .956.552 1.732.104 1.732-1 0-1.105-.776-2.448-1.732-3-.957-.553-1.732-.105-1.732 1m6.928 4c0 1.104.775 2.447 1.732 3 .956.552 1.732.104 1.732-1 0-1.105-.776-2.448-1.732-3-.957-.553-1.732-.105-1.732 1m6.928 4c0 1.104.775 2.447 1.732 3 .956.552 1.732.104 1.732-1 0-1.105-.776-2.448-1.732-3-.957-.553-1.732-.105-1.732 1" fill="#e5e6e8"/><g stroke="#ff6f00" stroke-width="2"><path d="m29.439 45.698a40.404 40.404 0 0 1 3.358 2.173"/><path d="m37.535 51.772c9.432 8.794 16.701 22.041 18.792 34.518" stroke-dasharray="8.194 6.145"/><path d="m56.736 89.335a40.41 40.41 0 0 1 .203 3.994m-55.001-31.754c0-1.399.08-2.732.23-3.995"/><path d="m3.49 51.932c3.082-8.341 10.48-11.844 19.644-9.035" stroke-dasharray="7.743 5.807"/><path d="m25.864 43.9a33.6 33.6 0 0 1 3.575 1.798m0 63.509a40.389 40.389 0 0 1 -3.358-2.173"/><path d="m21.342 103.133c-9.432-8.795-16.7-22.042-18.792-34.518" stroke-dasharray="8.194 6.145"/><path d="m2.142 65.57a40.41 40.41 0 0 1 -.203-3.995m54.999 31.755c0 1.399-.078 2.73-.23 3.995"/><path d="m55.388 102.973c-3.083 8.34-10.481 11.844-19.645 9.035" stroke-dasharray="7.743 5.807"/><path d="m33.014 111.004a33.6 33.6 0 0 1 -3.575-1.798"/></g><path d="m38.438 77.452a9 9 0 1 0 -18 0 9 9 0 0 0 18 0" fill="#ff6f00"/></g></svg>