<svg width="272" height="64" viewBox="0 0 272 64" fill="none" xmlns="http://www.w3.org/2000/svg">
<g clip-path="url(#clip0)">
<path d="M54.7216 22.5201H54.7234V22.5127L54.7216 22.5201Z" fill="black"/>
<path d="M59.7604 43.7357C63.1619 43.7357 64.4195 41.3633 65.6017 37.8067C66.8267 34.1439 66.7736 30.62 65.6017 25.9283C64.7584 22.5493 63.1639 19.9993 59.7604 19.9993H55.377V25.1871C55.377 29.2113 51.9633 32.6025 48.0719 32.6025H36.3895C33.1943 32.6025 30.5483 35.3363 30.5483 38.5417V49.6769C30.5483 52.8476 33.3045 54.7076 36.3895 55.6161C40.0849 56.6982 43.6415 56.8942 48.0699 55.6161C51.0119 54.7627 53.9111 53.0436 53.9111 49.6769V45.2241H42.2389V43.7377H59.7604V43.7357ZM48.8028 48.1886C50.0156 48.1886 51.0017 49.1849 51.0017 50.4099C51.0017 51.6471 50.0176 52.6414 48.8028 52.6414C47.5982 52.6414 46.6039 51.6349 46.6039 50.4099C46.6162 49.1726 47.6023 48.1886 48.8028 48.1886Z" fill="#F2BB30"/>
<path d="M24.5312 43.7369H28.5451V38.398C28.5451 34.5372 31.8812 31.1337 35.8502 31.1337H47.5306C50.7788 31.1337 53.3718 28.455 53.3718 25.1945V14.0511C53.3718 10.8804 50.7033 8.50388 47.5306 7.971C43.6146 7.3238 39.3598 7.36054 35.8502 7.98325L35.8522 7.98121C30.9073 8.85505 30.0131 10.6803 30.0131 14.0593V18.5121H41.7057V20.0005H25.6255C22.2241 20.0005 19.2473 22.0463 18.3204 25.9295C17.2486 30.3824 17.2057 33.159 18.3204 37.8079C19.1493 41.2645 21.1318 43.7369 24.5312 43.7369ZM35.1193 15.5374C33.9065 15.5374 32.9204 14.5411 32.9204 13.3161C32.9347 12.0788 33.9065 11.0845 35.1193 11.0845C36.3238 11.0845 37.3181 12.089 37.3181 13.3161C37.3181 14.5431 36.3341 15.5374 35.1193 15.5374Z" fill="#35668F"/>
</g>
<g clip-path="url(#clip1)">
<path d="M177.661 28.0015C177.423 28.0015 177.191 28.0507 176.986 28.1666L170.5 31.9124C170.08 32.1544 169.825 32.6111 169.825 33.097V40.575C169.825 41.0606 170.08 41.5167 170.5 41.7592L172.194 42.7371C173.017 43.1427 173.32 43.1364 173.695 43.1364C174.913 43.1364 175.609 42.397 175.609 41.1121V33.7304C175.609 33.6261 175.519 33.5514 175.416 33.5514H174.604C174.5 33.5514 174.411 33.6261 174.411 33.7304V41.1121C174.411 41.6815 173.818 42.2544 172.855 41.773L171.092 40.7402C171.03 40.7063 170.982 40.6464 170.982 40.575V33.0968C170.982 33.026 171.029 32.9539 171.092 32.9179L177.565 29.1861C177.594 29.169 177.627 29.16 177.661 29.16C177.695 29.16 177.728 29.169 177.757 29.1861L184.23 32.9181C184.292 32.9552 184.34 33.0239 184.34 33.0972V40.5752C184.34 40.6466 184.304 40.7197 184.244 40.7542L177.757 44.4862C177.702 44.5193 177.625 44.5193 177.565 44.4862L175.898 43.4947C175.873 43.4809 175.844 43.4737 175.816 43.4737C175.787 43.4737 175.758 43.4809 175.733 43.4947C175.273 43.7554 175.187 43.7856 174.755 43.9353C174.649 43.9724 174.488 44.03 174.81 44.2109L176.986 45.4914C177.191 45.6098 177.424 45.6716 177.661 45.6706C177.898 45.6721 178.131 45.6103 178.336 45.4916L184.822 41.7594C185.242 41.5154 185.497 41.0608 185.497 40.5752V33.097C185.497 32.6112 185.242 32.1553 184.822 31.9128L178.336 28.167C178.132 28.0508 177.899 28.0017 177.661 28.0017L177.661 28.0015Z" fill="#83CD29"/>
<path d="M179.396 33.345C177.549 33.345 176.449 34.1311 176.449 35.4383C176.449 36.8563 177.541 37.246 179.313 37.4213C181.434 37.629 181.599 37.9404 181.599 38.3578C181.599 39.0819 181.022 39.3906 179.658 39.3906C177.943 39.3906 177.567 38.9627 177.441 38.11C177.426 38.0185 177.355 37.9446 177.261 37.9446H176.421C176.318 37.9446 176.229 38.0338 176.229 38.1375C176.229 39.2291 176.822 40.5199 179.658 40.5199C181.71 40.5199 182.894 39.7143 182.894 38.3027C182.894 36.9035 181.938 36.5278 179.947 36.2646C177.935 35.9984 177.743 35.868 177.743 35.397C177.743 35.0081 177.906 34.4878 179.396 34.4878C180.727 34.4878 181.219 34.7749 181.42 35.6724C181.438 35.7567 181.512 35.8238 181.599 35.8238H182.44C182.491 35.8238 182.541 35.7921 182.577 35.7549C182.612 35.7153 182.637 35.6707 182.632 35.6173C182.502 34.0719 181.472 33.345 179.396 33.345Z" fill="#83CD29"/>
<path d="M139.527 18.1959C139.454 18.1959 139.383 18.2149 139.32 18.2508C139.258 18.2874 139.206 18.3397 139.169 18.4025C139.133 18.4653 139.114 18.5365 139.114 18.6089V29.1442C139.114 29.2476 139.066 29.3402 138.976 29.3921C138.932 29.4176 138.882 29.4311 138.831 29.4311C138.781 29.4311 138.731 29.4176 138.687 29.3921L136.965 28.4006C136.84 28.3279 136.697 28.2897 136.552 28.2897C136.407 28.2897 136.265 28.3279 136.139 28.4006L129.267 32.3667C129.01 32.515 128.854 32.8 128.854 33.0967V41.0291C128.854 41.3254 129.01 41.5968 129.267 41.7451L136.139 45.7114C136.264 45.7842 136.407 45.8226 136.552 45.8226C136.697 45.8226 136.84 45.7842 136.965 45.7114L143.837 41.7451C143.963 41.6727 144.068 41.5683 144.14 41.4426C144.213 41.3169 144.251 41.1742 144.25 41.0291V21.2532C144.25 21.1046 144.211 20.9588 144.136 20.8305C144.061 20.7023 143.953 20.5962 143.824 20.5232L139.733 18.237C139.669 18.2012 139.598 18.1949 139.527 18.1959ZM95.3201 28.0976C95.1892 28.1028 95.066 28.1257 94.9484 28.1939L88.0763 32.1602C87.9504 32.2325 87.8459 32.3368 87.7733 32.4626C87.7008 32.5883 87.6628 32.731 87.6632 32.8762L87.677 43.5219C87.677 43.6699 87.7534 43.8075 87.8835 43.8798C87.9459 43.9173 88.0173 43.9371 88.0901 43.9371C88.1629 43.9371 88.2344 43.9173 88.2968 43.8798L92.3731 41.5388C92.6313 41.3853 92.7999 41.1185 92.7999 40.8225V35.851C92.7999 35.5543 92.9559 35.2822 93.2132 35.1348L94.9482 34.1295C95.0737 34.0566 95.2164 34.0185 95.3615 34.0193C95.5031 34.0193 95.6486 34.0547 95.7745 34.1295L97.5098 35.1348C97.6358 35.207 97.7404 35.3114 97.813 35.4372C97.8856 35.563 97.9236 35.7058 97.923 35.851V40.8223C97.923 41.1183 98.0934 41.387 98.3499 41.5386L102.426 43.8798C102.489 43.9173 102.56 43.9371 102.633 43.9371C102.706 43.9371 102.777 43.9173 102.839 43.8798C102.902 43.8435 102.954 43.7913 102.991 43.7284C103.027 43.6656 103.046 43.5943 103.046 43.5217L103.06 32.8762C103.06 32.7309 103.023 32.5881 102.95 32.4623C102.877 32.3364 102.773 32.2322 102.647 32.1602L95.7745 28.1939C95.6584 28.1257 95.5347 28.103 95.4028 28.0976H95.3201ZM157.072 28.1939C156.928 28.1939 156.787 28.2303 156.659 28.3041L149.787 32.2704C149.661 32.3428 149.556 32.4471 149.484 32.5729C149.411 32.6986 149.373 32.8413 149.373 32.9865V40.9188C149.373 41.2172 149.541 41.4875 149.8 41.635L156.617 45.5186C156.869 45.6622 157.176 45.6731 157.43 45.532L161.561 43.2323C161.692 43.1596 161.781 43.0237 161.782 42.8744C161.782 42.8017 161.764 42.7301 161.727 42.6672C161.691 42.6042 161.638 42.5521 161.575 42.5163L154.662 38.55C154.532 38.4761 154.441 38.3266 154.441 38.1781V35.6994C154.441 35.5511 154.533 35.4152 154.662 35.3413L156.81 34.1018C156.873 34.0654 156.944 34.0463 157.017 34.0463C157.089 34.0463 157.161 34.0654 157.223 34.1018L159.371 35.3413C159.434 35.3775 159.487 35.4296 159.523 35.4925C159.559 35.5553 159.578 35.6266 159.578 35.6992V37.6548C159.578 37.7274 159.597 37.7987 159.633 37.8616C159.669 37.9244 159.722 37.9766 159.785 38.0127C159.913 38.0872 160.069 38.0874 160.198 38.0127L164.316 35.6169C164.441 35.5442 164.546 35.4398 164.618 35.3141C164.691 35.1884 164.729 35.0458 164.729 34.9007V32.9866C164.729 32.6909 164.572 32.4189 164.316 32.2704L157.485 28.3041C157.359 28.2315 157.217 28.1935 157.072 28.1941V28.1939ZM136.524 34.1157C136.56 34.1157 136.603 34.1245 136.635 34.1431L138.99 35.5065C139.054 35.5434 139.1 35.6118 139.1 35.6854V38.4122C139.1 38.4863 139.054 38.5544 138.99 38.5913L136.635 39.9547C136.603 39.9727 136.568 39.9821 136.531 39.9821C136.495 39.9821 136.46 39.9727 136.428 39.9547L134.073 38.5913C134.009 38.5542 133.963 38.4863 133.963 38.4122V35.6854C133.963 35.6116 134.009 35.5438 134.073 35.5065L136.428 34.1433C136.457 34.1253 136.491 34.1158 136.525 34.1159V34.1157H136.524Z" fill="#404137"/>
<path d="M115.964 28.1531C115.821 28.1531 115.68 28.1894 115.551 28.2633L108.679 32.2158C108.422 32.3638 108.266 32.6494 108.266 32.9456V40.878C108.266 41.1747 108.423 41.4457 108.679 41.5942L115.551 45.5603C115.677 45.6332 115.819 45.6716 115.965 45.6716C116.11 45.6716 116.252 45.6332 116.378 45.5603L123.25 41.5942C123.375 41.5218 123.48 41.4174 123.552 41.2916C123.625 41.1659 123.663 41.0232 123.663 40.878V32.9456C123.663 32.649 123.507 32.3638 123.25 32.2158L116.378 28.2633C116.252 28.1908 116.11 28.1527 115.964 28.1531ZM157.059 35.2318C157.031 35.2318 157.001 35.2318 156.976 35.2456L155.654 36.0167C155.63 36.0304 155.609 36.0504 155.594 36.0746C155.58 36.0987 155.572 36.1263 155.572 36.1545V37.6693C155.572 37.7263 155.604 37.7786 155.654 37.8071L156.976 38.5645C157.026 38.5932 157.079 38.5932 157.128 38.5645L158.45 37.8069C158.474 37.7932 158.495 37.7732 158.509 37.7491C158.524 37.725 158.532 37.6975 158.532 37.6693V36.1543C158.532 36.1262 158.524 36.0987 158.509 36.0746C158.495 36.0504 158.474 36.0305 158.45 36.0167L157.128 35.2454C157.103 35.231 157.086 35.232 157.059 35.232V35.2318Z" fill="#83CD29"/>
</g>
<g clip-path="url(#clip2)">
<path d="M206.5 8H254.5V56H206.5V8Z" fill="#F7DF1E"/>
<path d="M219.121 48.1124L222.794 45.8894C223.503 47.1458 224.147 48.2089 225.694 48.2089C227.176 48.2089 228.111 47.6292 228.111 45.3739V30.0368H232.621V45.4377C232.621 50.1096 229.883 52.2362 225.887 52.2362C222.279 52.2362 220.184 50.3674 219.121 48.112L219.121 48.1124ZM235.071 47.629L238.744 45.5026C239.711 47.0815 240.968 48.2414 243.191 48.2414C245.06 48.2414 246.252 47.3069 246.252 46.018C246.252 44.4715 245.027 43.9236 242.965 43.0217L241.838 42.538C238.583 41.1529 236.425 39.4129 236.425 35.7398C236.425 32.3566 239.002 29.7788 243.03 29.7788C245.897 29.7788 247.96 30.7778 249.442 33.3876L245.929 35.6432C245.156 34.2578 244.319 33.7101 243.03 33.7101C241.709 33.7101 240.871 34.5479 240.871 35.6432C240.871 36.9964 241.709 37.5445 243.642 38.3822L244.769 38.8654C248.604 40.5089 250.762 42.1842 250.762 45.9537C250.762 50.0138 247.573 52.2368 243.287 52.2368C239.099 52.2368 236.392 50.2392 235.071 47.6292" fill="black"/>
</g>
<defs>
<clipPath id="clip0">
<rect width="49" height="49" fill="white" transform="translate(17.5 7.5)"/>
</clipPath>
<clipPath id="clip1">
<rect width="98" height="27.7536" fill="white" transform="translate(87.5 18.1233)"/>
</clipPath>
<clipPath id="clip2">
<rect width="48" height="48" fill="white" transform="translate(206.5 8)"/>
</clipPath>
</defs>
</svg>
