<?xml version="1.0" ?><svg data-name="Layer 1" id="Layer_1" viewBox="0 0 256 256" xmlns="http://www.w3.org/2000/svg"><defs><style>.cls-1{fill:#787878;}</style></defs><title/><path class="cls-1" d="M210.79,236.3l-12-19.45a3.45,3.45,0,0,0-2.94-1.64h-3.51a78.3,78.3,0,0,0-41.76-117.8,20,20,0,0,0-7.35-11.84L159.8,57.91a3.46,3.46,0,0,0-1.18-4.74l-4.27-2.56,3.06-5.09,1.35.81a3.46,3.46,0,0,0,4.74-1.19l7-11.64a3.41,3.41,0,0,0,.38-2.61,3.46,3.46,0,0,0-1.57-2.13L146.21,14.92a3.45,3.45,0,0,0-4.74,1.19l-7,11.64a3.46,3.46,0,0,0,1.18,4.74l1.35.81L134,38.39l-4.26-2.56A3.45,3.45,0,0,0,125,37L73.32,123.15,69.66,121a3.46,3.46,0,0,0-3.56,5.93l3.67,2.2-4.33,7.21A3.46,3.46,0,0,0,66.63,141l1.33.79A15.37,15.37,0,0,0,81.69,164a15.94,15.94,0,0,0,3.8-.47,15.26,15.26,0,0,0,8.73-6l1.32.79a3.39,3.39,0,0,0,1.78.49,3.44,3.44,0,0,0,3-1.67L104.6,150l4.46,2.67a3.49,3.49,0,0,0,1.78.49,3.46,3.46,0,0,0,1.78-6.42L108.16,144,123,119.34a18.53,18.53,0,0,0,8.18,1.83,19.59,19.59,0,0,0,9.86-2.7,55.8,55.8,0,0,1,40.75,61.86,55.2,55.2,0,0,1-20,34.88H63.08a3.45,3.45,0,0,0-2.94,1.64l-12,19.45a3.45,3.45,0,0,0,2.94,5.27H207.85a3.45,3.45,0,0,0,2.94-5.27ZM145.62,22.62l17.15,10.29-3.42,5.72L158,37.82h0l-14.44-8.67h0l-1.35-.81ZM143,36.85,151.48,42l-3,5.09-8.53-5.12Zm-59.14,120a8.45,8.45,0,0,1-6.45-.94,8.54,8.54,0,0,1-3.48-10.55L88.29,154A8.39,8.39,0,0,1,83.81,156.86Zm12.32-6.2-1-.58c-.08-.06-.13-.14-.22-.2s-.19,0-.29-.1l-21.51-12.9,2.51-4.2,23,13.78Zm-16.88-24,49.87-83.16,4.26,2.55h0l14.45,8.67h0l4.26,2.55-15,25.05a21.43,21.43,0,0,0-3-.72,19.86,19.86,0,0,0-18.94,31.45,20.73,20.73,0,0,0,2.12,2.36l-15,25Zm49.93-12.59a13,13,0,1,1,9.69-2.44h0A12.88,12.88,0,0,1,129.18,114.11Zm59.41,67.25A62,62,0,0,0,147,113a19.6,19.6,0,0,0,3.6-8.29,71.38,71.38,0,0,1,33.24,110.47h-12A62.07,62.07,0,0,0,188.59,181.36ZM57.26,234.66,65,222.12H193.92l7.74,12.54Z"/><path class="cls-1" d="M119.54,211.9a3.46,3.46,0,0,0,3.46-3.46V194.77a3.46,3.46,0,0,0-3.46-3.46H48.15a3.46,3.46,0,0,0-3.46,3.46v13.67a3.46,3.46,0,0,0,3.46,3.46ZM51.6,198.22h64.49V205H51.6Z"/><path class="cls-1" d="M64.05,188.55h39.73a3.46,3.46,0,0,0,0-6.91H64.05a3.46,3.46,0,0,0,0,6.91Z"/></svg>